<svg xmlns="http://www.w3.org/2000/svg" width="1188.1820068359375" height="908.9942626953125" viewBox="-418.48046875 -404.84893798828125 1188.1820068359375 908.9942626953125"><title>Neo4j Graph Visualization</title><desc>Created using Neo4j (http://www.neo4j.com/)</desc><g class="layer relationships"><g class="relationship" transform="translate(-301.44600967095914 317.2846743187734) rotate(296.80134082075386)"><path class="outline" fill="#A5ABB6" stroke="none" d="M 25 0.5 L 35.84904326004193 0.5 L 35.84904326004193 -0.5 L 25 -0.5 Z M 70.29435576004192 0.5 L 81.14339902008386 0.5 L 81.14339902008386 3.5 L 88.14339902008386 0 L 81.14339902008386 -3.5 L 81.14339902008386 -0.5 L 70.29435576004192 -0.5 Z"/><text text-anchor="middle" pointer-events="none" font-size="8px" fill="#000000" x="53.07169951004193" y="3" font-family="sans-serif">ORIGIN</text></g><g class="relationship" transform="translate(-301.44600967095914 317.2846743187734) rotate(321.2063413565851)"><path class="outline" fill="#A5ABB6" stroke="none" d="M 25 0.5 L 51.773977309608355 0.5 L 51.773977309608355 -0.5 L 25 -0.5 Z M 110.96147730960836 0.5 L 137.7354546192167 0.5 L 137.7354546192167 3.5 L 144.7354546192167 0 L 137.7354546192167 -3.5 L 137.7354546192167 -0.5 L 110.96147730960836 -0.5 Z"/><text text-anchor="middle" pointer-events="none" font-size="8px" fill="#000000" x="81.36772730960836" y="3" font-family="sans-serif">DESTINATION</text></g><g class="relationship" transform="translate(-19.568243459960442 -37.46700050812384) rotate(481.05509008038644)"><path class="outline" fill="#A5ABB6" stroke="none" d="M 25 0.5 L 111.89144973845313 0.5 L 111.89144973845313 -0.5 L 25 -0.5 Z M 171.07894973845313 0.5 L 257.97039947690627 0.5 L 257.97039947690627 3.5 L 264.97039947690627 0 L 257.97039947690627 -3.5 L 257.97039947690627 -0.5 L 171.07894973845313 -0.5 Z"/><text text-anchor="middle" pointer-events="none" font-size="8px" fill="#000000" x="141.48519973845313" y="3" transform="rotate(180 141.48519973845313 0)" font-family="sans-serif">DESTINATION</text></g><g class="relationship" transform="translate(-19.568243459960442 -37.46700050812384) rotate(315.22425173065506)"><path class="outline" fill="#A5ABB6" stroke="none" d="M 25 0.5 L 106.64209742536742 0.5 L 106.64209742536742 -0.5 L 25 -0.5 Z M 141.0874099253674 0.5 L 222.72950735073485 0.5 L 222.72950735073485 3.5 L 229.72950735073485 0 L 222.72950735073485 -3.5 L 222.72950735073485 -0.5 L 141.0874099253674 -0.5 Z"/><text text-anchor="middle" pointer-events="none" font-size="8px" fill="#000000" x="123.86475367536742" y="3" font-family="sans-serif">ORIGIN</text></g><g class="relationship" transform="translate(391.79640458555815 -123.65853037325982) rotate(202.01684071020503)"><path class="outline" fill="#A5ABB6" stroke="none" d="M 25 0.5 L 91.24376731138403 0.5 L 91.24376731138403 -0.5 L 25 -0.5 Z M 150.43126731138403 0.5 L 216.67503462276807 0.5 L 216.67503462276807 3.5 L 223.67503462276807 0 L 216.67503462276807 -3.5 L 216.67503462276807 -0.5 L 150.43126731138403 -0.5 Z"/><text text-anchor="middle" pointer-events="none" font-size="8px" fill="#000000" x="120.83751731138403" y="3" transform="rotate(180 120.83751731138403 0)" font-family="sans-serif">DESTINATION</text></g><g class="relationship" transform="translate(391.79640458555815 -123.65853037325982) rotate(409.6070276136416)"><path class="outline" fill="#A5ABB6" stroke="none" d="M 25 0.5 L 97.91353982772145 0.5 L 97.91353982772145 -0.5 L 25 -0.5 Z M 132.35885232772145 0.5 L 205.2723921554429 0.5 L 205.2723921554429 3.5 L 212.2723921554429 0 L 205.2723921554429 -3.5 L 205.2723921554429 -0.5 L 132.35885232772145 -0.5 Z"/><text text-anchor="middle" pointer-events="none" font-size="8px" fill="#000000" x="115.13619607772145" y="3" font-family="sans-serif">ORIGIN</text></g><g class="relationship" transform="translate(709.6125377218125 110.7301086711) rotate(198.1175289776133)"><path class="outline" fill="#A5ABB6" stroke="none" d="M 25 0.5 L 65.58509579064227 0.5 L 65.58509579064227 -0.5 L 25 -0.5 Z M 100.03040829064227 0.5 L 140.61550408128454 0.5 L 140.61550408128454 3.5 L 147.61550408128454 0 L 140.61550408128454 -3.5 L 140.61550408128454 -0.5 L 100.03040829064227 -0.5 Z"/><text text-anchor="middle" pointer-events="none" font-size="8px" fill="#000000" x="82.80775204064227" y="3" transform="rotate(180 82.80775204064227 0)" font-family="sans-serif">ORIGIN</text></g><g class="relationship" transform="translate(709.6125377218125 110.7301086711) rotate(431.6998301431035)"><path class="outline" fill="#A5ABB6" stroke="none" d="M 25 0.5 L 27.226108836418938 0.5 L 27.226108836418938 -0.5 L 25 -0.5 Z M 64.78470258641894 0.5 L 67.01081142283788 0.5 L 67.01081142283788 3.5 L 74.01081142283788 0 L 67.01081142283788 -3.5 L 67.01081142283788 -0.5 L 64.78470258641894 -0.5 Z"/><text text-anchor="middle" pointer-events="none" font-size="8px" fill="#000000" x="46.00540571141894" y="3" font-family="sans-serif">DESTI…</text></g><g class="relationship" transform="translate(651.0836524742208 98.14427950916998) rotate(201.27553969411133)"><path class="outline" fill="#A5ABB6" stroke="none" d="M 25 0.5 L 35.90066330044689 0.5 L 35.90066330044689 -0.5 L 25 -0.5 Z M 70.3459758004469 0.5 L 81.24663910089377 0.5 L 81.24663910089377 3.5 L 88.24663910089377 0 L 81.24663910089377 -3.5 L 81.24663910089377 -0.5 L 70.3459758004469 -0.5 Z"/><text text-anchor="middle" pointer-events="none" font-size="8px" fill="#000000" x="53.12331955044689" y="3" transform="rotate(180 53.12331955044689 0)" font-family="sans-serif">ORIGIN</text></g><g class="relationship" transform="translate(651.0836524742208 98.14427950916998) rotate(409.94360886771756)"><path class="outline" fill="#A5ABB6" stroke="none" d="M 25 0.5 L 36.53489627036021 0.5 L 36.53489627036021 -0.5 L 25 -0.5 Z M 95.7223962703602 0.5 L 107.25729254072041 0.5 L 107.25729254072041 3.5 L 114.25729254072041 0 L 107.25729254072041 -3.5 L 107.25729254072041 -0.5 L 95.7223962703602 -0.5 Z"/><text text-anchor="middle" pointer-events="none" font-size="8px" fill="#000000" x="66.1286462703602" y="3" font-family="sans-serif">DESTINATION</text></g><g class="relationship" transform="translate(612.571864956485 208.5927592791032) rotate(246.143248157701)"><path class="outline" fill="#A5ABB6" stroke="none" d="M 25 0.5 L 62.12619735626407 0.5 L 62.12619735626407 -0.5 L 25 -0.5 Z M 96.57150985626407 0.5 L 133.69770721252814 0.5 L 133.69770721252814 3.5 L 140.69770721252814 0 L 133.69770721252814 -3.5 L 133.69770721252814 -0.5 L 96.57150985626407 -0.5 Z"/><text text-anchor="middle" pointer-events="none" font-size="8px" fill="#000000" x="79.34885360626407" y="3" transform="rotate(180 79.34885360626407 0)" font-family="sans-serif">ORIGIN</text></g><g class="relationship" transform="translate(612.571864956485 208.5927592791032) rotate(358.27473146871034)"><path class="outline" fill="#A5ABB6" stroke="none" d="M 25 0.5 L 31.000104701082165 0.5 L 31.000104701082165 -0.5 L 25 -0.5 Z M 90.18760470108217 0.5 L 96.18770940216433 0.5 L 96.18770940216433 3.5 L 103.18770940216433 0 L 96.18770940216433 -3.5 L 96.18770940216433 -0.5 L 90.18760470108217 -0.5 Z"/><text text-anchor="middle" pointer-events="none" font-size="8px" fill="#000000" x="60.593854701082165" y="3" font-family="sans-serif">DESTINATION</text></g><g class="relationship" transform="translate(692.6098514355491 53.312039169325985) rotate(538.5430068983619)"><path class="outline" fill="#A5ABB6" stroke="none" d="M 25 0.5 L 52.828449132260076 0.5 L 52.828449132260076 -0.5 L 25 -0.5 Z M 87.27376163226008 0.5 L 115.10221076452015 0.5 L 115.10221076452015 3.5 L 122.10221076452015 0 L 115.10221076452015 -3.5 L 115.10221076452015 -0.5 L 87.27376163226008 -0.5 Z"/><text text-anchor="middle" pointer-events="none" font-size="8px" fill="#000000" x="70.05110538226008" y="3" transform="rotate(180 70.05110538226008 0)" font-family="sans-serif">ORIGIN</text></g><g class="relationship" transform="translate(692.6098514355491 53.312039169325985) rotate(432.38008750401883)"><path class="outline" fill="#A5ABB6" stroke="none" d="M 25 0.5 L 46.343698313633936 0.5 L 46.343698313633936 -0.5 L 25 -0.5 Z M 105.53119831363394 0.5 L 126.87489662726787 0.5 L 126.87489662726787 3.5 L 133.87489662726787 0 L 126.87489662726787 -3.5 L 126.87489662726787 -0.5 L 105.53119831363394 -0.5 Z"/><text text-anchor="middle" pointer-events="none" font-size="8px" fill="#000000" x="75.93744831363394" y="3" font-family="sans-serif">DESTINATION</text></g><g class="relationship" transform="translate(644.2596085229912 157.73236563554067) rotate(225.5676996040238)"><path class="outline" fill="#A5ABB6" stroke="none" d="M 25 0.5 L 49.77384468438375 0.5 L 49.77384468438375 -0.5 L 25 -0.5 Z M 84.21915718438375 0.5 L 108.9930018687675 0.5 L 108.9930018687675 3.5 L 115.9930018687675 0 L 108.9930018687675 -3.5 L 108.9930018687675 -0.5 L 84.21915718438375 -0.5 Z"/><text text-anchor="middle" pointer-events="none" font-size="8px" fill="#000000" x="66.99650093438375" y="3" transform="rotate(180 66.99650093438375 0)" font-family="sans-serif">ORIGIN</text></g><g class="relationship" transform="translate(644.2596085229912 157.73236563554067) rotate(385.9823368319501)"><path class="outline" fill="#A5ABB6" stroke="none" d="M 25 0.5 L 25.806697338036116 0.5 L 25.806697338036116 -0.5 L 25 -0.5 Z M 74.47857233803612 0.5 L 75.28526967607223 0.5 L 75.28526967607223 3.5 L 82.28526967607223 0 L 75.28526967607223 -3.5 L 75.28526967607223 -0.5 L 74.47857233803612 -0.5 Z"/><text text-anchor="middle" pointer-events="none" font-size="8px" fill="#000000" x="50.142634838036116" y="3" font-family="sans-serif">DESTINA…</text></g><g class="relationship" transform="translate(-245.27216820283013 338.18749005182485) rotate(267.5770644560232)"><path class="outline" fill="#A5ABB6" stroke="none" d="M 25 0.5 L 27.90669283223791 0.5 L 27.90669283223791 -0.5 L 25 -0.5 Z M 87.09419283223791 0.5 L 90.00088566447582 0.5 L 90.00088566447582 3.5 L 97.00088566447582 0 L 90.00088566447582 -3.5 L 90.00088566447582 -0.5 L 87.09419283223791 -0.5 Z"/><text text-anchor="middle" pointer-events="none" font-size="8px" fill="#000000" x="57.50044283223791" y="3" transform="rotate(180 57.50044283223791 0)" font-family="sans-serif">DESTINATION</text></g><g class="relationship" transform="translate(-245.27216820283013 338.18749005182485) rotate(300.8882680743382)"><path class="outline" fill="#A5ABB6" stroke="none" d="M 25 0.5 L 53.414782281445966 0.5 L 53.414782281445966 -0.5 L 25 -0.5 Z M 87.86009478144597 0.5 L 116.27487706289193 0.5 L 116.27487706289193 3.5 L 123.27487706289193 0 L 116.27487706289193 -3.5 L 116.27487706289193 -0.5 L 87.86009478144597 -0.5 Z"/><text text-anchor="middle" pointer-events="none" font-size="8px" fill="#000000" x="70.63743853144597" y="3" font-family="sans-serif">ORIGIN</text></g><g class="relationship" transform="translate(-335.14345122730276 267.6507246907766) rotate(328.7749393363461)"><path class="outline" fill="#A5ABB6" stroke="none" d="M 25 0.5 L 28.80950242660697 0.5 L 28.80950242660697 -0.5 L 25 -0.5 Z M 63.25481492660697 0.5 L 67.06431735321394 0.5 L 67.06431735321394 3.5 L 74.06431735321394 0 L 67.06431735321394 -3.5 L 67.06431735321394 -0.5 L 63.25481492660697 -0.5 Z"/><text text-anchor="middle" pointer-events="none" font-size="8px" fill="#000000" x="46.03215867660697" y="3" font-family="sans-serif">ORIGIN</text></g><g class="relationship" transform="translate(-335.14345122730276 267.6507246907766) rotate(341.137997324401)"><path class="outline" fill="#A5ABB6" stroke="none" d="M 25 0.5 L 54.61125995622368 0.5 L 54.61125995622368 -0.5 L 25 -0.5 Z M 113.79875995622368 0.5 L 143.41001991244735 0.5 L 143.41001991244735 3.5 L 150.41001991244735 0 L 143.41001991244735 -3.5 L 143.41001991244735 -0.5 L 113.79875995622368 -0.5 Z"/><text text-anchor="middle" pointer-events="none" font-size="8px" fill="#000000" x="84.20500995622368" y="3" font-family="sans-serif">DESTINATION</text></g><g class="relationship" transform="translate(-150.3911757791755 410.6601838298607) rotate(242.7652968087969)"><path class="outline" fill="#A5ABB6" stroke="none" d="M 25 0.5 L 88.57658265411581 0.5 L 88.57658265411581 -0.5 L 25 -0.5 Z M 123.02189515411581 0.5 L 186.59847780823162 0.5 L 186.59847780823162 3.5 L 193.59847780823162 0 L 186.59847780823162 -3.5 L 186.59847780823162 -0.5 L 123.02189515411581 -0.5 Z"/><text text-anchor="middle" pointer-events="none" font-size="8px" fill="#000000" x="105.79923890411581" y="3" transform="rotate(180 105.79923890411581 0)" font-family="sans-serif">ORIGIN</text></g><g class="relationship" transform="translate(-150.3911757791755 410.6601838298607) rotate(378.1826081120909)"><path class="outline" fill="#A5ABB6" stroke="none" d="M 25 0.5 L 70.23240940881192 0.5 L 70.23240940881192 -0.5 L 25 -0.5 Z M 129.41990940881192 0.5 L 174.65231881762384 0.5 L 174.65231881762384 3.5 L 181.65231881762384 0 L 174.65231881762384 -3.5 L 174.65231881762384 -0.5 L 129.41990940881192 -0.5 Z"/><text text-anchor="middle" pointer-events="none" font-size="8px" fill="#000000" x="99.82615940881192" y="3" font-family="sans-serif">DESTINATION</text></g><g class="relationship" transform="translate(174.3380035526214 345.8840169829708) rotate(494.80750636303253)"><path class="outline" fill="#A5ABB6" stroke="none" d="M 25 0.5 L 58.00226215879128 0.5 L 58.00226215879128 -0.5 L 25 -0.5 Z M 117.18976215879128 0.5 L 150.19202431758256 0.5 L 150.19202431758256 3.5 L 157.19202431758256 0 L 150.19202431758256 -3.5 L 150.19202431758256 -0.5 L 117.18976215879128 -0.5 Z"/><text text-anchor="middle" pointer-events="none" font-size="8px" fill="#000000" x="87.59601215879128" y="3" transform="rotate(180 87.59601215879128 0)" font-family="sans-serif">DESTINATION</text></g><g class="relationship" transform="translate(174.3380035526214 345.8840169829708) rotate(268.9749182095283)"><path class="outline" fill="#A5ABB6" stroke="none" d="M 25 0.5 L 101.37933481418764 0.5 L 101.37933481418764 -0.5 L 25 -0.5 Z M 135.82464731418764 0.5 L 212.2039821283753 0.5 L 212.2039821283753 3.5 L 219.2039821283753 0 L 212.2039821283753 -3.5 L 212.2039821283753 -0.5 L 135.82464731418764 -0.5 Z"/><text text-anchor="middle" pointer-events="none" font-size="8px" fill="#000000" x="118.60199106418764" y="3" transform="rotate(180 118.60199106418764 0)" font-family="sans-serif">ORIGIN</text></g><g class="relationship" transform="translate(395.03906112521366 143.96018611500605) rotate(190.62960603259518)"><path class="outline" fill="#A5ABB6" stroke="none" d="M 25 0.5 L 81.40599191547919 0.5 L 81.40599191547919 -0.5 L 25 -0.5 Z M 140.5934919154792 0.5 L 196.99948383095838 0.5 L 196.99948383095838 3.5 L 203.99948383095838 0 L 196.99948383095838 -3.5 L 196.99948383095838 -0.5 L 140.5934919154792 -0.5 Z"/><text text-anchor="middle" pointer-events="none" font-size="8px" fill="#000000" x="110.99974191547919" y="3" transform="rotate(180 110.99974191547919 0)" font-family="sans-serif">DESTINATION</text></g><g class="relationship" transform="translate(395.03906112521366 143.96018611500605) rotate(329.99791403135026)"><path class="outline" fill="#A5ABB6" stroke="none" d="M 25 0.5 L 66.17970374537933 0.5 L 66.17970374537933 -0.5 L 25 -0.5 Z M 100.62501624537933 0.5 L 141.80471999075866 0.5 L 141.80471999075866 3.5 L 148.80471999075866 0 L 141.80471999075866 -3.5 L 141.80471999075866 -0.5 L 100.62501624537933 -0.5 Z"/><text text-anchor="middle" pointer-events="none" font-size="8px" fill="#000000" x="83.40235999537933" y="3" font-family="sans-serif">ORIGIN</text></g><g class="relationship" transform="translate(364.2201441848012 92.68568660928541) rotate(537.3374401895928)"><path class="outline" fill="#A5ABB6" stroke="none" d="M 25 0.5 L 64.13670264587184 0.5 L 64.13670264587184 -0.5 L 25 -0.5 Z M 123.32420264587184 0.5 L 162.46090529174367 0.5 L 162.46090529174367 3.5 L 169.46090529174367 0 L 162.46090529174367 -3.5 L 162.46090529174367 -0.5 L 123.32420264587184 -0.5 Z"/><text text-anchor="middle" pointer-events="none" font-size="8px" fill="#000000" x="93.73045264587184" y="3" transform="rotate(180 93.73045264587184 0)" font-family="sans-serif">DESTINATION</text></g><g class="relationship" transform="translate(364.2201441848012 92.68568660928541) rotate(348.8827141971801)"><path class="outline" fill="#A5ABB6" stroke="none" d="M 25 0.5 L 71.67882832595106 0.5 L 71.67882832595106 -0.5 L 25 -0.5 Z M 106.12414082595106 0.5 L 152.80296915190212 0.5 L 152.80296915190212 3.5 L 159.80296915190212 0 L 152.80296915190212 -3.5 L 152.80296915190212 -0.5 L 106.12414082595106 -0.5 Z"/><text text-anchor="middle" pointer-events="none" font-size="8px" fill="#000000" x="88.90148457595106" y="3" font-family="sans-serif">ORIGIN</text></g><g class="relationship" transform="translate(384.91615721036305 36.54864198799547) rotate(523.133050678919)"><path class="outline" fill="#A5ABB6" stroke="none" d="M 25 0.5 L 79.2109671802635 0.5 L 79.2109671802635 -0.5 L 25 -0.5 Z M 138.39846718026348 0.5 L 192.609434360527 0.5 L 192.609434360527 3.5 L 199.609434360527 0 L 192.609434360527 -3.5 L 192.609434360527 -0.5 L 138.39846718026348 -0.5 Z"/><text text-anchor="middle" pointer-events="none" font-size="8px" fill="#000000" x="108.8047171802635" y="3" transform="rotate(180 108.8047171802635 0)" font-family="sans-serif">DESTINATION</text></g><g class="relationship" transform="translate(384.91615721036305 36.54864198799547) rotate(367.273809037363)"><path class="outline" fill="#A5ABB6" stroke="none" d="M 25 0.5 L 60.248486678797846 0.5 L 60.248486678797846 -0.5 L 25 -0.5 Z M 94.69379917879785 0.5 L 129.9422858575957 0.5 L 129.9422858575957 3.5 L 136.9422858575957 0 L 129.9422858575957 -3.5 L 129.9422858575957 -0.5 L 94.69379917879785 -0.5 Z"/><text text-anchor="middle" pointer-events="none" font-size="8px" fill="#000000" x="77.47114292879785" y="3" font-family="sans-serif">ORIGIN</text></g><g class="relationship" transform="translate(21.024943358365324 207.60847601949396) rotate(538.9956662368007)"><path class="outline" fill="#A5ABB6" stroke="none" d="M 25 0.5 L 62.00980991870438 0.5 L 62.00980991870438 -0.5 L 25 -0.5 Z M 121.19730991870438 0.5 L 158.20711983740875 0.5 L 158.20711983740875 3.5 L 165.20711983740875 0 L 158.20711983740875 -3.5 L 158.20711983740875 -0.5 L 121.19730991870438 -0.5 Z"/><text text-anchor="middle" pointer-events="none" font-size="8px" fill="#000000" x="91.60355991870438" y="3" transform="rotate(180 91.60355991870438 0)" font-family="sans-serif">DESTINATION</text></g><g class="relationship" transform="translate(21.024943358365324 207.60847601949396) rotate(324.58972490712534)"><path class="outline" fill="#A5ABB6" stroke="none" d="M 25 0.5 L 70.65149085576606 0.5 L 70.65149085576606 -0.5 L 25 -0.5 Z M 105.09680335576606 0.5 L 150.7482942115321 0.5 L 150.7482942115321 3.5 L 157.7482942115321 0 L 150.7482942115321 -3.5 L 150.7482942115321 -0.5 L 105.09680335576606 -0.5 Z"/><text text-anchor="middle" pointer-events="none" font-size="8px" fill="#000000" x="87.87414710576606" y="3" font-family="sans-serif">ORIGIN</text></g><g class="relationship" transform="translate(122.4994375885843 315.8251424159053) rotate(475.6653817015622)"><path class="outline" fill="#A5ABB6" stroke="none" d="M 25 0.5 L 55.28598583246058 0.5 L 55.28598583246058 -0.5 L 25 -0.5 Z M 114.47348583246058 0.5 L 144.75947166492116 0.5 L 144.75947166492116 3.5 L 151.75947166492116 0 L 144.75947166492116 -3.5 L 144.75947166492116 -0.5 L 114.47348583246058 -0.5 Z"/><text text-anchor="middle" pointer-events="none" font-size="8px" fill="#000000" x="84.87973583246058" y="3" transform="rotate(180 84.87973583246058 0)" font-family="sans-serif">DESTINATION</text></g><g class="relationship" transform="translate(122.4994375885843 315.8251424159053) rotate(282.50091054818756)"><path class="outline" fill="#A5ABB6" stroke="none" d="M 25 0.5 L 88.92993774356464 0.5 L 88.92993774356464 -0.5 L 25 -0.5 Z M 123.37525024356464 0.5 L 187.30518798712927 0.5 L 187.30518798712927 3.5 L 194.30518798712927 0 L 187.30518798712927 -3.5 L 187.30518798712927 -0.5 L 123.37525024356464 -0.5 Z"/><text text-anchor="middle" pointer-events="none" font-size="8px" fill="#000000" x="106.15259399356464" y="3" font-family="sans-serif">ORIGIN</text></g><g class="relationship" transform="translate(8.169074097646563 149.0592268513994) rotate(520.7616413035917)"><path class="outline" fill="#A5ABB6" stroke="none" d="M 25 0.5 L 73.18239328303115 0.5 L 73.18239328303115 -0.5 L 25 -0.5 Z M 107.62770578303115 0.5 L 155.8100990660623 0.5 L 155.8100990660623 3.5 L 162.8100990660623 0 L 155.8100990660623 -3.5 L 155.8100990660623 -0.5 L 107.62770578303115 -0.5 Z"/><text text-anchor="middle" pointer-events="none" font-size="8px" fill="#000000" x="90.40504953303115" y="3" transform="rotate(180 90.40504953303115 0)" font-family="sans-serif">ORIGIN</text></g><g class="relationship" transform="translate(8.169074097646563 149.0592268513994) rotate(343.69137180776283)"><path class="outline" fill="#A5ABB6" stroke="none" d="M 25 0.5 L 51.19794165277412 0.5 L 51.19794165277412 -0.5 L 25 -0.5 Z M 110.38544165277412 0.5 L 136.58338330554824 0.5 L 136.58338330554824 3.5 L 143.58338330554824 0 L 136.58338330554824 -3.5 L 136.58338330554824 -0.5 L 110.38544165277412 -0.5 Z"/><text text-anchor="middle" pointer-events="none" font-size="8px" fill="#000000" x="80.79169165277412" y="3" font-family="sans-serif">DESTINATION</text></g><g class="relationship" transform="translate(-64.27393160754538 144.3471053167559) rotate(518.8686663173588)"><path class="outline" fill="#A5ABB6" stroke="none" d="M 25 0.5 L 66.69429377032014 0.5 L 66.69429377032014 -0.5 L 25 -0.5 Z M 125.88179377032014 0.5 L 167.5760875406403 0.5 L 167.5760875406403 3.5 L 174.5760875406403 0 L 167.5760875406403 -3.5 L 167.5760875406403 -0.5 L 125.88179377032014 -0.5 Z"/><text text-anchor="middle" pointer-events="none" font-size="8px" fill="#000000" x="96.28804377032014" y="3" transform="rotate(180 96.28804377032014 0)" font-family="sans-serif">DESTINATION</text></g><g class="relationship" transform="translate(-64.27393160754538 144.3471053167559) rotate(349.6860775948105)"><path class="outline" fill="#A5ABB6" stroke="none" d="M 25 0.5 L 98.32247825052906 0.5 L 98.32247825052906 -0.5 L 25 -0.5 Z M 132.76779075052906 0.5 L 206.09026900105812 0.5 L 206.09026900105812 3.5 L 213.09026900105812 0 L 206.09026900105812 -3.5 L 206.09026900105812 -0.5 L 132.76779075052906 -0.5 Z"/><text text-anchor="middle" pointer-events="none" font-size="8px" fill="#000000" x="115.54513450052906" y="3" font-family="sans-serif">ORIGIN</text></g><g class="relationship" transform="translate(227.33574132820016 -51.039681447049546) rotate(470.58301166814095)"><path class="outline" fill="#A5ABB6" stroke="none" d="M 25 0.5 L 48.493893193348114 0.5 L 48.493893193348114 -0.5 L 25 -0.5 Z M 107.68139319334811 0.5 L 131.17528638669623 0.5 L 131.17528638669623 3.5 L 138.17528638669623 0 L 131.17528638669623 -3.5 L 131.17528638669623 -0.5 L 107.68139319334811 -0.5 Z"/><text text-anchor="middle" pointer-events="none" font-size="8px" fill="#000000" x="78.08764319334811" y="3" transform="rotate(180 78.08764319334811 0)" font-family="sans-serif">DESTINATION</text></g><g class="relationship" transform="translate(227.33574132820016 -51.039681447049546) rotate(248.27527711050107)"><path class="outline" fill="#A5ABB6" stroke="none" d="M 25 0.5 L 68.53824411321698 0.5 L 68.53824411321698 -0.5 L 25 -0.5 Z M 102.98355661321698 0.5 L 146.52180072643395 0.5 L 146.52180072643395 3.5 L 153.52180072643395 0 L 146.52180072643395 -3.5 L 146.52180072643395 -0.5 L 102.98355661321698 -0.5 Z"/><text text-anchor="middle" pointer-events="none" font-size="8px" fill="#000000" x="85.76090036321698" y="3" transform="rotate(180 85.76090036321698 0)" font-family="sans-serif">ORIGIN</text></g><g class="relationship" transform="translate(243.42971266295237 -108.71618206292699) rotate(469.24350710899387)"><path class="outline" fill="#A5ABB6" stroke="none" d="M 25 0.5 L 90.72179912193674 0.5 L 90.72179912193674 -0.5 L 25 -0.5 Z M 125.16711162193674 0.5 L 190.88891074387348 0.5 L 190.88891074387348 3.5 L 197.88891074387348 0 L 190.88891074387348 -3.5 L 190.88891074387348 -0.5 L 125.16711162193674 -0.5 Z"/><text text-anchor="middle" pointer-events="none" font-size="8px" fill="#000000" x="107.94445537193674" y="3" transform="rotate(180 107.94445537193674 0)" font-family="sans-serif">ORIGIN</text></g><g class="relationship" transform="translate(243.42971266295237 -108.71618206292699) rotate(232.77602154152476)"><path class="outline" fill="#A5ABB6" stroke="none" d="M 25 0.5 L 34.825733943587906 0.5 L 34.825733943587906 -0.5 L 25 -0.5 Z M 94.0132339435879 0.5 L 103.83896788717581 0.5 L 103.83896788717581 3.5 L 110.83896788717581 0 L 103.83896788717581 -3.5 L 103.83896788717581 -0.5 L 94.0132339435879 -0.5 Z"/><text text-anchor="middle" pointer-events="none" font-size="8px" fill="#000000" x="64.4194839435879" y="3" transform="rotate(180 64.4194839435879 0)" font-family="sans-serif">DESTINATION</text></g><g class="relationship" transform="translate(285.1461529907979 -65.94999615397658) rotate(484.48634934472955)"><path class="outline" fill="#A5ABB6" stroke="none" d="M 25 0.5 L 68.61498728524866 0.5 L 68.61498728524866 -0.5 L 25 -0.5 Z M 127.80248728524866 0.5 L 171.41747457049732 0.5 L 171.41747457049732 3.5 L 178.41747457049732 0 L 171.41747457049732 -3.5 L 171.41747457049732 -0.5 L 127.80248728524866 -0.5 Z"/><text text-anchor="middle" pointer-events="none" font-size="8px" fill="#000000" x="98.20873728524866" y="3" transform="rotate(180 98.20873728524866 0)" font-family="sans-serif">DESTINATION</text></g><g class="relationship" transform="translate(285.1461529907979 -65.94999615397658) rotate(230.6196775322669)"><path class="outline" fill="#A5ABB6" stroke="none" d="M 25 0.5 L 76.91063894593061 0.5 L 76.91063894593061 -0.5 L 25 -0.5 Z M 111.35595144593061 0.5 L 163.26659039186123 0.5 L 163.26659039186123 3.5 L 170.26659039186123 0 L 163.26659039186123 -3.5 L 163.26659039186123 -0.5 L 111.35595144593061 -0.5 Z"/><text text-anchor="middle" pointer-events="none" font-size="8px" fill="#000000" x="94.13329519593061" y="3" transform="rotate(180 94.13329519593061 0)" font-family="sans-serif">ORIGIN</text></g><g class="relationship" transform="translate(127.40848903758517 -78.92054902476312) rotate(436.7422810563564)"><path class="outline" fill="#A5ABB6" stroke="none" d="M 25 0.5 L 59.69916552622419 0.5 L 59.69916552622419 -0.5 L 25 -0.5 Z M 118.88666552622419 0.5 L 153.58583105244838 0.5 L 153.58583105244838 3.5 L 160.58583105244838 0 L 153.58583105244838 -3.5 L 153.58583105244838 -0.5 L 118.88666552622419 -0.5 Z"/><text text-anchor="middle" pointer-events="none" font-size="8px" fill="#000000" x="89.29291552622419" y="3" font-family="sans-serif">DESTINATION</text></g><g class="relationship" transform="translate(127.40848903758517 -78.92054902476312) rotate(283.7848584496533)"><path class="outline" fill="#A5ABB6" stroke="none" d="M 25 0.5 L 50.30362081833873 0.5 L 50.30362081833873 -0.5 L 25 -0.5 Z M 84.74893331833873 0.5 L 110.05255413667746 0.5 L 110.05255413667746 3.5 L 117.05255413667746 0 L 110.05255413667746 -3.5 L 110.05255413667746 -0.5 L 84.74893331833873 -0.5 Z"/><text text-anchor="middle" pointer-events="none" font-size="8px" fill="#000000" x="67.52627706833873" y="3" font-family="sans-serif">ORIGIN</text></g><g class="relationship" transform="translate(169.25045477773313 -36.20060139826571) rotate(449.7014277606429)"><path class="outline" fill="#A5ABB6" stroke="none" d="M 25 0.5 L 35.86704572455187 0.5 L 35.86704572455187 -0.5 L 25 -0.5 Z M 95.05454572455187 0.5 L 105.92159144910374 0.5 L 105.92159144910374 3.5 L 112.92159144910374 0 L 105.92159144910374 -3.5 L 105.92159144910374 -0.5 L 95.05454572455187 -0.5 Z"/><text text-anchor="middle" pointer-events="none" font-size="8px" fill="#000000" x="65.46079572455187" y="3" font-family="sans-serif">DESTINATION</text></g><g class="relationship" transform="translate(169.25045477773313 -36.20060139826571) rotate(267.4666303720723)"><path class="outline" fill="#A5ABB6" stroke="none" d="M 25 0.5 L 69.70622575710304 0.5 L 69.70622575710304 -0.5 L 25 -0.5 Z M 104.15153825710304 0.5 L 148.85776401420608 0.5 L 148.85776401420608 3.5 L 155.85776401420608 0 L 148.85776401420608 -3.5 L 148.85776401420608 -0.5 L 104.15153825710304 -0.5 Z"/><text text-anchor="middle" pointer-events="none" font-size="8px" fill="#000000" x="86.92888200710304" y="3" transform="rotate(180 86.92888200710304 0)" font-family="sans-serif">ORIGIN</text></g><g class="relationship" transform="translate(185.38927714992425 -93.74560326505113) rotate(454.5106912270499)"><path class="outline" fill="#A5ABB6" stroke="none" d="M 25 0.5 L 64.94225960871846 0.5 L 64.94225960871846 -0.5 L 25 -0.5 Z M 124.12975960871846 0.5 L 164.07201921743692 0.5 L 164.07201921743692 3.5 L 171.07201921743692 0 L 164.07201921743692 -3.5 L 164.07201921743692 -0.5 L 124.12975960871846 -0.5 Z"/><text text-anchor="middle" pointer-events="none" font-size="8px" fill="#000000" x="94.53600960871846" y="3" transform="rotate(180 94.53600960871846 0)" font-family="sans-serif">DESTINATION</text></g><g class="relationship" transform="translate(185.38927714992425 -93.74560326505113) rotate(258.9113649176112)"><path class="outline" fill="#A5ABB6" stroke="none" d="M 25 0.5 L 42.01663428370639 0.5 L 42.01663428370639 -0.5 L 25 -0.5 Z M 76.4619467837064 0.5 L 93.47858106741278 0.5 L 93.47858106741278 3.5 L 100.47858106741278 0 L 93.47858106741278 -3.5 L 93.47858106741278 -0.5 L 76.4619467837064 -0.5 Z"/><text text-anchor="middle" pointer-events="none" font-size="8px" fill="#000000" x="59.23929053370639" y="3" transform="rotate(180 59.23929053370639 0)" font-family="sans-serif">ORIGIN</text></g><g class="relationship" transform="translate(-46.45692957399752 201.51315565144014) rotate(535.8548525440423)"><path class="outline" fill="#A5ABB6" stroke="none" d="M 25 0.5 L 69.16018208465043 0.5 L 69.16018208465043 -0.5 L 25 -0.5 Z M 128.34768208465044 0.5 L 172.50786416930086 0.5 L 172.50786416930086 3.5 L 179.50786416930086 0 L 172.50786416930086 -3.5 L 172.50786416930086 -0.5 L 128.34768208465044 -0.5 Z"/><text text-anchor="middle" pointer-events="none" font-size="8px" fill="#000000" x="98.75393208465043" y="3" transform="rotate(180 98.75393208465043 0)" font-family="sans-serif">DESTINATION</text></g><g class="relationship" transform="translate(-46.45692957399752 201.51315565144014) rotate(335.2455811732086)"><path class="outline" fill="#A5ABB6" stroke="none" d="M 25 0.5 L 98.44015969990228 0.5 L 98.44015969990228 -0.5 L 25 -0.5 Z M 132.88547219990227 0.5 L 206.32563189980456 0.5 L 206.32563189980456 3.5 L 213.32563189980456 0 L 206.32563189980456 -3.5 L 206.32563189980456 -0.5 L 132.88547219990227 -0.5 Z"/><text text-anchor="middle" pointer-events="none" font-size="8px" fill="#000000" x="115.66281594990228" y="3" font-family="sans-serif">ORIGIN</text></g><g class="relationship" transform="translate(-69.19717035416737 292.4354745697384) rotate(202.78834011247767)"><path class="outline" fill="#A5ABB6" stroke="none" d="M 25 0.5 L 77.56588023953049 0.5 L 77.56588023953049 -0.5 L 25 -0.5 Z M 112.01119273953049 0.5 L 164.57707297906097 0.5 L 164.57707297906097 3.5 L 171.57707297906097 0 L 164.57707297906097 -3.5 L 164.57707297906097 -0.5 L 112.01119273953049 -0.5 Z"/><text text-anchor="middle" pointer-events="none" font-size="8px" fill="#000000" x="94.78853648953049" y="3" transform="rotate(180 94.78853648953049 0)" font-family="sans-serif">ORIGIN</text></g><g class="relationship" transform="translate(-69.19717035416737 292.4354745697384) rotate(347.33978733203685)"><path class="outline" fill="#A5ABB6" stroke="none" d="M 25 0.5 L 87.18721103645775 0.5 L 87.18721103645775 -0.5 L 25 -0.5 Z M 146.37471103645777 0.5 L 208.5619220729155 0.5 L 208.5619220729155 3.5 L 215.5619220729155 0 L 208.5619220729155 -3.5 L 208.5619220729155 -0.5 L 146.37471103645777 -0.5 Z"/><text text-anchor="middle" pointer-events="none" font-size="8px" fill="#000000" x="116.78096103645775" y="3" font-family="sans-serif">DESTINATION</text></g><g class="relationship" transform="translate(263.79364510326457 157.45779861879657) rotate(500.07217377628945)"><path class="outline" fill="#A5ABB6" stroke="none" d="M 25 0.5 L 30.984771539969145 0.5 L 30.984771539969145 -0.5 L 25 -0.5 Z M 90.17227153996915 0.5 L 96.15704307993829 0.5 L 96.15704307993829 3.5 L 103.15704307993829 0 L 96.15704307993829 -3.5 L 96.15704307993829 -0.5 L 90.17227153996915 -0.5 Z"/><text text-anchor="middle" pointer-events="none" font-size="8px" fill="#000000" x="60.578521539969145" y="3" transform="rotate(180 60.578521539969145 0)" font-family="sans-serif">DESTINATION</text></g><g class="relationship" transform="translate(263.79364510326457 157.45779861879657) rotate(210.71344587443753)"><path class="outline" fill="#A5ABB6" stroke="none" d="M 25 0.5 L 33.84343357627186 0.5 L 33.84343357627186 -0.5 L 25 -0.5 Z M 68.28874607627186 0.5 L 77.13217965254373 0.5 L 77.13217965254373 3.5 L 84.13217965254373 0 L 77.13217965254373 -3.5 L 77.13217965254373 -0.5 L 68.28874607627186 -0.5 Z"/><text text-anchor="middle" pointer-events="none" font-size="8px" fill="#000000" x="51.06608982627186" y="3" transform="rotate(180 51.06608982627186 0)" font-family="sans-serif">ORIGIN</text></g><g class="relationship" transform="translate(-200.48063395567522 -50.16866512545999) rotate(460.61698214214687)"><path class="outline" fill="#A5ABB6" stroke="none" d="M 25 0.5 L 102.45897635649703 0.5 L 102.45897635649703 -0.5 L 25 -0.5 Z M 161.64647635649703 0.5 L 239.10545271299407 0.5 L 239.10545271299407 3.5 L 246.10545271299407 0 L 239.10545271299407 -3.5 L 239.10545271299407 -0.5 L 161.64647635649703 -0.5 Z"/><text text-anchor="middle" pointer-events="none" font-size="8px" fill="#000000" x="132.05272635649703" y="3" transform="rotate(180 132.05272635649703 0)" font-family="sans-serif">DESTINATION</text></g><g class="relationship" transform="translate(-200.48063395567522 -50.16866512545999) rotate(300.1562067840725)"><path class="outline" fill="#A5ABB6" stroke="none" d="M 25 0.5 L 107.95031639329972 0.5 L 107.95031639329972 -0.5 L 25 -0.5 Z M 142.39562889329972 0.5 L 225.34594528659943 0.5 L 225.34594528659943 3.5 L 232.34594528659943 0 L 225.34594528659943 -3.5 L 225.34594528659943 -0.5 L 142.39562889329972 -0.5 Z"/><text text-anchor="middle" pointer-events="none" font-size="8px" fill="#000000" x="125.17297264329972" y="3" font-family="sans-serif">ORIGIN</text></g><g class="relationship" transform="translate(20.30172067422429 -84.3440652810686) rotate(244.08800560197642)"><path class="outline" fill="#A5ABB6" stroke="none" d="M 25 0.5 L 71.60227379163601 0.5 L 71.60227379163601 -0.5 L 25 -0.5 Z M 130.789773791636 0.5 L 177.39204758327202 0.5 L 177.39204758327202 3.5 L 184.39204758327202 0 L 177.39204758327202 -3.5 L 177.39204758327202 -0.5 L 130.789773791636 -0.5 Z"/><text text-anchor="middle" pointer-events="none" font-size="8px" fill="#000000" x="101.19602379163601" y="3" transform="rotate(180 101.19602379163601 0)" font-family="sans-serif">DESTINATION</text></g><g class="relationship" transform="translate(20.30172067422429 -84.3440652810686) rotate(411.1871327095481)"><path class="outline" fill="#A5ABB6" stroke="none" d="M 25 0.5 L 98.67149505259509 0.5 L 98.67149505259509 -0.5 L 25 -0.5 Z M 133.1168075525951 0.5 L 206.78830260519018 0.5 L 206.78830260519018 3.5 L 213.78830260519018 0 L 206.78830260519018 -3.5 L 206.78830260519018 -0.5 L 133.1168075525951 -0.5 Z"/><text text-anchor="middle" pointer-events="none" font-size="8px" fill="#000000" x="115.89415130259509" y="3" font-family="sans-serif">ORIGIN</text></g><g class="relationship" transform="translate(292.5186849742738 209.95009046346522) rotate(526.8113254555217)"><path class="outline" fill="#A5ABB6" stroke="none" d="M 25 0.5 L 32.127895463381165 0.5 L 32.127895463381165 -0.5 L 25 -0.5 Z M 91.31539546338117 0.5 L 98.44329092676233 0.5 L 98.44329092676233 3.5 L 105.44329092676233 0 L 98.44329092676233 -3.5 L 98.44329092676233 -0.5 L 91.31539546338117 -0.5 Z"/><text text-anchor="middle" pointer-events="none" font-size="8px" fill="#000000" x="61.721645463381165" y="3" transform="rotate(180 61.721645463381165 0)" font-family="sans-serif">DESTINATION</text></g><g class="relationship" transform="translate(292.5186849742738 209.95009046346522) rotate(221.44969233303044)"><path class="outline" fill="#A5ABB6" stroke="none" d="M 25 0.5 L 61.027461563249204 0.5 L 61.027461563249204 -0.5 L 25 -0.5 Z M 95.4727740632492 0.5 L 131.5002356264984 0.5 L 131.5002356264984 3.5 L 138.5002356264984 0 L 131.5002356264984 -3.5 L 131.5002356264984 -0.5 L 95.4727740632492 -0.5 Z"/><text text-anchor="middle" pointer-events="none" font-size="8px" fill="#000000" x="78.2501178132492" y="3" transform="rotate(180 78.2501178132492 0)" font-family="sans-serif">ORIGIN</text></g><g class="relationship" transform="translate(262.06102889619615 261.5118662509649) rotate(192.7240969382372)"><path class="outline" fill="#A5ABB6" stroke="none" d="M 25 0.5 L 28.765199352726945 0.5 L 28.765199352726945 -0.5 L 25 -0.5 Z M 63.210511852726945 0.5 L 66.97571120545389 0.5 L 66.97571120545389 3.5 L 73.97571120545389 0 L 66.97571120545389 -3.5 L 66.97571120545389 -0.5 L 63.210511852726945 -0.5 Z"/><text text-anchor="middle" pointer-events="none" font-size="8px" fill="#000000" x="45.987855602726945" y="3" transform="rotate(180 45.987855602726945 0)" font-family="sans-serif">ORIGIN</text></g><g class="relationship" transform="translate(262.06102889619615 261.5118662509649) rotate(240.0442649936598)"><path class="outline" fill="#A5ABB6" stroke="none" d="M 25 0.5 L 59.12153206222429 0.5 L 59.12153206222429 -0.5 L 25 -0.5 Z M 118.30903206222429 0.5 L 152.43056412444858 0.5 L 152.43056412444858 3.5 L 159.43056412444858 0 L 152.43056412444858 -3.5 L 152.43056412444858 -0.5 L 118.30903206222429 -0.5 Z"/><text text-anchor="middle" pointer-events="none" font-size="8px" fill="#000000" x="88.71528206222429" y="3" transform="rotate(180 88.71528206222429 0)" font-family="sans-serif">DESTINATION</text></g><g class="relationship" transform="translate(-342.07391854728223 69.84866097467832) rotate(417.96235669343673)"><path class="outline" fill="#A5ABB6" stroke="none" d="M 25 0.5 L 65.65640229264939 0.5 L 65.65640229264939 -0.5 L 25 -0.5 Z M 100.10171479264939 0.5 L 140.75811708529878 0.5 L 140.75811708529878 3.5 L 147.75811708529878 0 L 140.75811708529878 -3.5 L 140.75811708529878 -0.5 L 100.10171479264939 -0.5 Z"/><text text-anchor="middle" pointer-events="none" font-size="8px" fill="#000000" x="82.87905854264939" y="3" font-family="sans-serif">ORIGIN</text></g><g class="relationship" transform="translate(-342.07391854728223 69.84866097467832) rotate(313.62626825182787)"><path class="outline" fill="#A5ABB6" stroke="none" d="M 25 0.5 L 25.501124308071866 0.5 L 25.501124308071866 -0.5 L 25 -0.5 Z M 84.68862430807187 0.5 L 85.18974861614373 0.5 L 85.18974861614373 3.5 L 92.18974861614373 0 L 85.18974861614373 -3.5 L 85.18974861614373 -0.5 L 84.68862430807187 -0.5 Z"/><text text-anchor="middle" pointer-events="none" font-size="8px" fill="#000000" x="55.094874308071866" y="3" font-family="sans-serif">DESTINATION</text></g><g class="relationship" transform="translate(-58.268895045567106 69.60608088897057) rotate(202.62551004227782)"><path class="outline" fill="#A5ABB6" stroke="none" d="M 25 0.5 L 76.8418960713419 0.5 L 76.8418960713419 -0.5 L 25 -0.5 Z M 136.02939607134192 0.5 L 187.8712921426838 0.5 L 187.8712921426838 3.5 L 194.8712921426838 0 L 187.8712921426838 -3.5 L 187.8712921426838 -0.5 L 136.02939607134192 -0.5 Z"/><text text-anchor="middle" pointer-events="none" font-size="8px" fill="#000000" x="106.4356460713419" y="3" transform="rotate(180 106.4356460713419 0)" font-family="sans-serif">DESTINATION</text></g><g class="relationship" transform="translate(-58.268895045567106 69.60608088897057) rotate(368.00892807180287)"><path class="outline" fill="#A5ABB6" stroke="none" d="M 25 0.5 L 94.52041472885323 0.5 L 94.52041472885323 -0.5 L 25 -0.5 Z M 128.9657272288532 0.5 L 198.48614195770645 0.5 L 198.48614195770645 3.5 L 205.48614195770645 0 L 198.48614195770645 -3.5 L 198.48614195770645 -0.5 L 128.9657272288532 -0.5 Z"/><text text-anchor="middle" pointer-events="none" font-size="8px" fill="#000000" x="111.74307097885323" y="3" font-family="sans-serif">ORIGIN</text></g><g class="relationship" transform="translate(-56.51134065226822 9.88859210413764) rotate(186.92650210609236)"><path class="outline" fill="#A5ABB6" stroke="none" d="M 25 0.5 L 70.01242189179025 0.5 L 70.01242189179025 -0.5 L 25 -0.5 Z M 129.19992189179027 0.5 L 174.2123437835805 0.5 L 174.2123437835805 3.5 L 181.2123437835805 0 L 174.2123437835805 -3.5 L 174.2123437835805 -0.5 L 129.19992189179027 -0.5 Z"/><text text-anchor="middle" pointer-events="none" font-size="8px" fill="#000000" x="99.60617189179025" y="3" transform="rotate(180 99.60617189179025 0)" font-family="sans-serif">DESTINATION</text></g><g class="relationship" transform="translate(-56.51134065226822 9.88859210413764) rotate(382.07096346701223)"><path class="outline" fill="#A5ABB6" stroke="none" d="M 25 0.5 L 101.47213421368117 0.5 L 101.47213421368117 -0.5 L 25 -0.5 Z M 135.91744671368116 0.5 L 212.38958092736235 0.5 L 212.38958092736235 3.5 L 219.38958092736235 0 L 212.38958092736235 -3.5 L 212.38958092736235 -0.5 L 135.91744671368116 -0.5 Z"/><text text-anchor="middle" pointer-events="none" font-size="8px" fill="#000000" x="118.69479046368117" y="3" font-family="sans-serif">ORIGIN</text></g><g class="relationship" transform="translate(-389.4804752551333 106.42452923119608) rotate(398.3140972835777)"><path class="outline" fill="#A5ABB6" stroke="none" d="M 25 0.5 L 67.88709333100066 0.5 L 67.88709333100066 -0.5 L 25 -0.5 Z M 102.33240583100066 0.5 L 145.2194991620013 0.5 L 145.2194991620013 3.5 L 152.2194991620013 0 L 145.2194991620013 -3.5 L 145.2194991620013 -0.5 L 102.33240583100066 -0.5 Z"/><text text-anchor="middle" pointer-events="none" font-size="8px" fill="#000000" x="85.10974958100066" y="3" font-family="sans-serif">ORIGIN</text></g><g class="relationship" transform="translate(-389.4804752551333 106.42452923119608) rotate(316.5733227763393)"><path class="outline" fill="#A5ABB6" stroke="none" d="M 25 0.5 L 55.20984424502991 0.5 L 55.20984424502991 -0.5 L 25 -0.5 Z M 114.39734424502991 0.5 L 144.60718849005983 0.5 L 144.60718849005983 3.5 L 151.60718849005983 0 L 144.60718849005983 -3.5 L 144.60718849005983 -0.5 L 114.39734424502991 -0.5 Z"/><text text-anchor="middle" pointer-events="none" font-size="8px" fill="#000000" x="84.80359424502991" y="3" font-family="sans-serif">DESTINATION</text></g><g class="relationship" transform="translate(7.44069582429106 -299.16206995408146) rotate(521.3926612378674)"><path class="outline" fill="#A5ABB6" stroke="none" d="M 25 0.5 L 25.432722965970967 0.5 L 25.432722965970967 -0.5 L 25 -0.5 Z M 50.54600421597097 0.5 L 50.978727181941935 0.5 L 50.978727181941935 3.5 L 57.978727181941935 0 L 50.978727181941935 -3.5 L 50.978727181941935 -0.5 L 50.54600421597097 -0.5 Z"/><text text-anchor="middle" pointer-events="none" font-size="8px" fill="#000000" x="37.98936359097097" y="3" transform="rotate(180 37.98936359097097 0)" font-family="sans-serif">DE…</text></g><g class="relationship" transform="translate(7.44069582429106 -299.16206995408146) rotate(388.14362684457393)"><path class="outline" fill="#A5ABB6" stroke="none" d="M 25 0.5 L 66.49735407703331 0.5 L 66.49735407703331 -0.5 L 25 -0.5 Z M 100.94266657703331 0.5 L 142.44002065406661 0.5 L 142.44002065406661 3.5 L 149.44002065406661 0 L 142.44002065406661 -3.5 L 142.44002065406661 -0.5 L 100.94266657703331 -0.5 Z"/><text text-anchor="middle" pointer-events="none" font-size="8px" fill="#000000" x="83.72001032703331" y="3" font-family="sans-serif">ORIGIN</text></g><g class="relationship" transform="translate(20.17316748210032 -357.6969625093359) rotate(497.06565588967646)"><path class="outline" fill="#A5ABB6" stroke="none" d="M 25 0.5 L 29.30849199839838 0.5 L 29.30849199839838 -0.5 L 25 -0.5 Z M 88.49599199839838 0.5 L 92.80448399679676 0.5 L 92.80448399679676 3.5 L 99.80448399679676 0 L 92.80448399679676 -3.5 L 92.80448399679676 -0.5 L 88.49599199839838 -0.5 Z"/><text text-anchor="middle" pointer-events="none" font-size="8px" fill="#000000" x="58.90224199839838" y="3" transform="rotate(180 58.90224199839838 0)" font-family="sans-serif">DESTINATION</text></g><g class="relationship" transform="translate(20.17316748210032 -357.6969625093359) rotate(404.9455714117612)"><path class="outline" fill="#A5ABB6" stroke="none" d="M 25 0.5 L 78.94356256172952 0.5 L 78.94356256172952 -0.5 L 25 -0.5 Z M 113.38887506172952 0.5 L 167.33243762345904 0.5 L 167.33243762345904 3.5 L 174.33243762345904 0 L 167.33243762345904 -3.5 L 167.33243762345904 -0.5 L 113.38887506172952 -0.5 Z"/><text text-anchor="middle" pointer-events="none" font-size="8px" fill="#000000" x="96.16621881172952" y="3" font-family="sans-serif">ORIGIN</text></g><g class="relationship" transform="translate(51.65786218584028 -258.7790693742452) rotate(186.45770798657793)"><path class="outline" fill="#A5ABB6" stroke="none" d="M 25 0.5 L 41.0987879073528 0.5 L 41.0987879073528 -0.5 L 25 -0.5 Z M 75.5441004073528 0.5 L 91.6428883147056 0.5 L 91.6428883147056 3.5 L 98.6428883147056 0 L 91.6428883147056 -3.5 L 91.6428883147056 -0.5 L 75.5441004073528 -0.5 Z"/><text text-anchor="middle" pointer-events="none" font-size="8px" fill="#000000" x="58.3214441573528" y="3" transform="rotate(180 58.3214441573528 0)" font-family="sans-serif">ORIGIN</text></g><g class="relationship" transform="translate(51.65786218584028 -258.7790693742452) rotate(380.92093208750055)"><path class="outline" fill="#A5ABB6" stroke="none" d="M 25 0.5 L 25.573146935326 0.5 L 25.573146935326 -0.5 L 25 -0.5 Z M 84.76064693532601 0.5 L 85.333793870652 0.5 L 85.333793870652 3.5 L 92.333793870652 0 L 85.333793870652 -3.5 L 85.333793870652 -0.5 L 84.76064693532601 -0.5 Z"/><text text-anchor="middle" pointer-events="none" font-size="8px" fill="#000000" x="55.166896935326" y="3" font-family="sans-serif">DESTINATION</text></g><g class="relationship" transform="translate(69.03830685622871 -118.9860245471531) rotate(227.62191328666415)"><path class="outline" fill="#A5ABB6" stroke="none" d="M 25 0.5 L 83.3090160649067 0.5 L 83.3090160649067 -0.5 L 25 -0.5 Z M 117.7543285649067 0.5 L 176.0633446298134 0.5 L 176.0633446298134 3.5 L 183.0633446298134 0 L 176.0633446298134 -3.5 L 176.0633446298134 -0.5 L 117.7543285649067 -0.5 Z"/><text text-anchor="middle" pointer-events="none" font-size="8px" fill="#000000" x="100.5316723149067" y="3" transform="rotate(180 100.5316723149067 0)" font-family="sans-serif">ORIGIN</text></g><g class="relationship" transform="translate(69.03830685622871 -118.9860245471531) rotate(425.4248660867808)"><path class="outline" fill="#A5ABB6" stroke="none" d="M 25 0.5 L 88.25059360741703 0.5 L 88.25059360741703 -0.5 L 25 -0.5 Z M 147.43809360741704 0.5 L 210.68868721483406 0.5 L 210.68868721483406 3.5 L 217.68868721483406 0 L 210.68868721483406 -3.5 L 210.68868721483406 -0.5 L 147.43809360741704 -0.5 Z"/><text text-anchor="middle" pointer-events="none" font-size="8px" fill="#000000" x="117.84434360741703" y="3" font-family="sans-serif">DESTINATION</text></g><g class="relationship" transform="translate(-335.30808220473574 131.75986744786718) rotate(404.8841850105123)"><path class="outline" fill="#A5ABB6" stroke="none" d="M 25 0.5 L 39.17438167433539 0.5 L 39.17438167433539 -0.5 L 25 -0.5 Z M 73.6196941743354 0.5 L 87.79407584867079 0.5 L 87.79407584867079 3.5 L 94.79407584867079 0 L 87.79407584867079 -3.5 L 87.79407584867079 -0.5 L 73.6196941743354 -0.5 Z"/><text text-anchor="middle" pointer-events="none" font-size="8px" fill="#000000" x="56.39703792433539" y="3" font-family="sans-serif">ORIGIN</text></g><g class="relationship" transform="translate(-335.30808220473574 131.75986744786718) rotate(296.7893805519564)"><path class="outline" fill="#A5ABB6" stroke="none" d="M 25 0.5 L 49.09774726723872 0.5 L 49.09774726723872 -0.5 L 25 -0.5 Z M 108.28524726723872 0.5 L 132.38299453447743 0.5 L 132.38299453447743 3.5 L 139.38299453447743 0 L 132.38299453447743 -3.5 L 132.38299453447743 -0.5 L 108.28524726723872 -0.5 Z"/><text text-anchor="middle" pointer-events="none" font-size="8px" fill="#000000" x="78.69149726723872" y="3" font-family="sans-serif">DESTINATION</text></g><g class="relationship" transform="translate(-287.7420502438718 95.2638728530031) rotate(432.86628365135704)"><path class="outline" fill="#A5ABB6" stroke="none" d="M 25 0.5 L 42.603678979143815 0.5 L 42.603678979143815 -0.5 L 25 -0.5 Z M 77.04899147914381 0.5 L 94.65267045828763 0.5 L 94.65267045828763 3.5 L 101.65267045828763 0 L 94.65267045828763 -3.5 L 94.65267045828763 -0.5 L 77.04899147914381 -0.5 Z"/><text text-anchor="middle" pointer-events="none" font-size="8px" fill="#000000" x="59.826335229143815" y="3" font-family="sans-serif">ORIGIN</text></g><g class="relationship" transform="translate(-287.7420502438718 95.2638728530031) rotate(283.527617623822)"><path class="outline" fill="#A5ABB6" stroke="none" d="M 25 0.5 L 25.6009498912847 0.5 L 25.6009498912847 -0.5 L 25 -0.5 Z M 80.7884498912847 0.5 L 81.3893997825694 0.5 L 81.3893997825694 3.5 L 88.3893997825694 0 L 81.3893997825694 -3.5 L 81.3893997825694 -0.5 L 80.7884498912847 -0.5 Z"/><text text-anchor="middle" pointer-events="none" font-size="8px" fill="#000000" x="53.1946998912847" y="3" font-family="sans-serif">DESTINATI…</text></g><g class="relationship" transform="translate(77.23981920859744 -375.8489509915683) rotate(505.2012853640797)"><path class="outline" fill="#A5ABB6" stroke="none" d="M 25 0.5 L 57.290575404771616 0.5 L 57.290575404771616 -0.5 L 25 -0.5 Z M 116.47807540477162 0.5 L 148.76865080954323 0.5 L 148.76865080954323 3.5 L 155.76865080954323 0 L 148.76865080954323 -3.5 L 148.76865080954323 -0.5 L 116.47807540477162 -0.5 Z"/><text text-anchor="middle" pointer-events="none" font-size="8px" fill="#000000" x="86.88432540477162" y="3" transform="rotate(180 86.88432540477162 0)" font-family="sans-serif">DESTINATION</text></g><g class="relationship" transform="translate(77.23981920859744 -375.8489509915683) rotate(422.1429126811311)"><path class="outline" fill="#A5ABB6" stroke="none" d="M 25 0.5 L 69.17922027220371 0.5 L 69.17922027220371 -0.5 L 25 -0.5 Z M 103.62453277220371 0.5 L 147.80375304440742 0.5 L 147.80375304440742 3.5 L 154.80375304440742 0 L 147.80375304440742 -3.5 L 147.80375304440742 -0.5 L 103.62453277220371 -0.5 Z"/><text text-anchor="middle" pointer-events="none" font-size="8px" fill="#000000" x="86.40187652220371" y="3" font-family="sans-serif">ORIGIN</text></g><g class="relationship" transform="translate(121.49384476725305 -335.4721193520888) rotate(521.9524731924124)"><path class="outline" fill="#A5ABB6" stroke="none" d="M 25 0.5 L 68.23902399384242 0.5 L 68.23902399384242 -0.5 L 25 -0.5 Z M 127.42652399384242 0.5 L 170.66554798768485 0.5 L 170.66554798768485 3.5 L 177.66554798768485 0 L 170.66554798768485 -3.5 L 170.66554798768485 -0.5 L 127.42652399384242 -0.5 Z"/><text text-anchor="middle" pointer-events="none" font-size="8px" fill="#000000" x="97.83277399384242" y="3" transform="rotate(180 97.83277399384242 0)" font-family="sans-serif">DESTINATION</text></g><g class="relationship" transform="translate(121.49384476725305 -335.4721193520888) rotate(431.46409994797307)"><path class="outline" fill="#A5ABB6" stroke="none" d="M 25 0.5 L 41.81686065487016 0.5 L 41.81686065487016 -0.5 L 25 -0.5 Z M 76.26217315487017 0.5 L 93.07903380974032 0.5 L 93.07903380974032 3.5 L 100.07903380974032 0 L 93.07903380974032 -3.5 L 93.07903380974032 -0.5 L 76.26217315487017 -0.5 Z"/><text text-anchor="middle" pointer-events="none" font-size="8px" fill="#000000" x="59.03951690487016" y="3" font-family="sans-serif">ORIGIN</text></g><g class="relationship" transform="translate(-78.36623981414274 -159.42037560407044) rotate(501.69374321852763)"><path class="outline" fill="#A5ABB6" stroke="none" d="M 25 0.5 L 95.78710186141224 0.5 L 95.78710186141224 -0.5 L 25 -0.5 Z M 130.23241436141222 0.5 L 201.01951622282448 0.5 L 201.01951622282448 3.5 L 208.01951622282448 0 L 201.01951622282448 -3.5 L 201.01951622282448 -0.5 L 130.23241436141222 -0.5 Z"/><text text-anchor="middle" pointer-events="none" font-size="8px" fill="#000000" x="113.00975811141224" y="3" transform="rotate(180 113.00975811141224 0)" font-family="sans-serif">ORIGIN</text></g><g class="relationship" transform="translate(-78.36623981414274 -159.42037560407044) rotate(346.51516135608404)"><path class="outline" fill="#A5ABB6" stroke="none" d="M 25 0.5 L 90.11416677282921 0.5 L 90.11416677282921 -0.5 L 25 -0.5 Z M 149.3016667728292 0.5 L 214.41583354565842 0.5 L 214.41583354565842 3.5 L 221.41583354565842 0 L 214.41583354565842 -3.5 L 214.41583354565842 -0.5 L 149.3016667728292 -0.5 Z"/><text text-anchor="middle" pointer-events="none" font-size="8px" fill="#000000" x="119.70791677282921" y="3" font-family="sans-serif">DESTINATION</text></g><g class="relationship" transform="translate(64.45944249187212 -317.3438711286861) rotate(521.778665142883)"><path class="outline" fill="#A5ABB6" stroke="none" d="M 25 0.5 L 50.688177352827225 0.5 L 50.688177352827225 -0.5 L 25 -0.5 Z M 85.13348985282722 0.5 L 110.82166720565445 0.5 L 110.82166720565445 3.5 L 117.82166720565445 0 L 110.82166720565445 -3.5 L 110.82166720565445 -0.5 L 85.13348985282722 -0.5 Z"/><text text-anchor="middle" pointer-events="none" font-size="8px" fill="#000000" x="67.91083360282722" y="3" transform="rotate(180 67.91083360282722 0)" font-family="sans-serif">ORIGIN</text></g><g class="relationship" transform="translate(64.45944249187212 -317.3438711286861) rotate(406.0645251242511)"><path class="outline" fill="#A5ABB6" stroke="none" d="M 25 0.5 L 36.65992789781049 0.5 L 36.65992789781049 -0.5 L 25 -0.5 Z M 95.84742789781049 0.5 L 107.50735579562098 0.5 L 107.50735579562098 3.5 L 114.50735579562098 0 L 107.50735579562098 -3.5 L 107.50735579562098 -0.5 L 95.84742789781049 -0.5 Z"/><text text-anchor="middle" pointer-events="none" font-size="8px" fill="#000000" x="66.25367789781049" y="3" font-family="sans-serif">DESTINATION</text></g><g class="relationship" transform="translate(-141.259364603923 339.93876979054073) rotate(228.55715963597072)"><path class="outline" fill="#A5ABB6" stroke="none" d="M 25 0.5 L 61.74825561532565 0.5 L 61.74825561532565 -0.5 L 25 -0.5 Z M 96.19356811532565 0.5 L 132.9418237306513 0.5 L 132.9418237306513 3.5 L 139.9418237306513 0 L 132.9418237306513 -3.5 L 132.9418237306513 -0.5 L 96.19356811532565 -0.5 Z"/><text text-anchor="middle" pointer-events="none" font-size="8px" fill="#000000" x="78.97091186532565" y="3" transform="rotate(180 78.97091186532565 0)" font-family="sans-serif">ORIGIN</text></g><g class="relationship" transform="translate(-141.259364603923 339.93876979054073) rotate(353.2613151226167)"><path class="outline" fill="#A5ABB6" stroke="none" d="M 25 0.5 L 59.2760716455185 0.5 L 59.2760716455185 -0.5 L 25 -0.5 Z M 118.4635716455185 0.5 L 152.739643291037 0.5 L 152.739643291037 3.5 L 159.739643291037 0 L 152.739643291037 -3.5 L 152.739643291037 -0.5 L 118.4635716455185 -0.5 Z"/><text text-anchor="middle" pointer-events="none" font-size="8px" fill="#000000" x="88.8698216455185" y="3" font-family="sans-serif">DESTINATION</text></g><g class="relationship" transform="translate(107.47382858898719 224.69461709743877) rotate(484.8987045342035)"><path class="outline" fill="#A5ABB6" stroke="none" d="M 25 0.5 L 25.94756993016675 0.5 L 25.94756993016675 -0.5 L 25 -0.5 Z M 81.13506993016675 0.5 L 82.0826398603335 0.5 L 82.0826398603335 3.5 L 89.0826398603335 0 L 82.0826398603335 -3.5 L 82.0826398603335 -0.5 L 81.13506993016675 -0.5 Z"/><text text-anchor="middle" pointer-events="none" font-size="8px" fill="#000000" x="53.54131993016675" y="3" transform="rotate(180 53.54131993016675 0)" font-family="sans-serif">DESTINATI…</text></g><g class="relationship" transform="translate(107.47382858898719 224.69461709743877) rotate(296.9393784961245)"><path class="outline" fill="#A5ABB6" stroke="none" d="M 25 0.5 L 48.24951435583324 0.5 L 48.24951435583324 -0.5 L 25 -0.5 Z M 82.69482685583324 0.5 L 105.94434121166648 0.5 L 105.94434121166648 3.5 L 112.94434121166648 0 L 105.94434121166648 -3.5 L 105.94434121166648 -0.5 L 82.69482685583324 -0.5 Z"/><text text-anchor="middle" pointer-events="none" font-size="8px" fill="#000000" x="65.47217060583324" y="3" font-family="sans-serif">ORIGIN</text></g><g class="relationship" transform="translate(197.21421368643894 290.369871252475) rotate(529.7997927190368)"><path class="outline" fill="#A5ABB6" stroke="none" d="M 25 0.5 L 45.65598269323361 0.5 L 45.65598269323361 -0.5 L 25 -0.5 Z M 104.84348269323361 0.5 L 125.49946538646722 0.5 L 125.49946538646722 3.5 L 132.49946538646722 0 L 125.49946538646722 -3.5 L 125.49946538646722 -0.5 L 104.84348269323361 -0.5 Z"/><text text-anchor="middle" pointer-events="none" font-size="8px" fill="#000000" x="75.24973269323361" y="3" transform="rotate(180 75.24973269323361 0)" font-family="sans-serif">DESTINATION</text></g><g class="relationship" transform="translate(197.21421368643894 290.369871252475) rotate(261.78213252387246)"><path class="outline" fill="#A5ABB6" stroke="none" d="M 25 0.5 L 74.58133016901455 0.5 L 74.58133016901455 -0.5 L 25 -0.5 Z M 109.02664266901455 0.5 L 158.6079728380291 0.5 L 158.6079728380291 3.5 L 165.6079728380291 0 L 158.6079728380291 -3.5 L 158.6079728380291 -0.5 L 109.02664266901455 -0.5 Z"/><text text-anchor="middle" pointer-events="none" font-size="8px" fill="#000000" x="91.80398641901455" y="3" transform="rotate(180 91.80398641901455 0)" font-family="sans-serif">ORIGIN</text></g><g class="relationship" transform="translate(107.98307595825614 30.357577959301032) rotate(462.8698013324956)"><path class="outline" fill="#A5ABB6" stroke="none" d="M 25 0.5 L 126.93858520381667 0.5 L 126.93858520381667 -0.5 L 25 -0.5 Z M 161.38389770381667 0.5 L 263.32248290763334 0.5 L 263.32248290763334 3.5 L 270.32248290763334 0 L 263.32248290763334 -3.5 L 263.32248290763334 -0.5 L 161.38389770381667 -0.5 Z"/><text text-anchor="middle" pointer-events="none" font-size="8px" fill="#000000" x="144.16124145381667" y="3" transform="rotate(180 144.16124145381667 0)" font-family="sans-serif">ORIGIN</text></g><g class="relationship" transform="translate(107.98307595825614 30.357577959301032) rotate(282.1597532650723)"><path class="outline" fill="#A5ABB6" stroke="none" d="M 25 0.5 L 93.36301264074943 0.5 L 93.36301264074943 -0.5 L 25 -0.5 Z M 152.55051264074945 0.5 L 220.91352528149886 0.5 L 220.91352528149886 3.5 L 227.91352528149886 0 L 220.91352528149886 -3.5 L 220.91352528149886 -0.5 L 152.55051264074945 -0.5 Z"/><text text-anchor="middle" pointer-events="none" font-size="8px" fill="#000000" x="122.95676264074943" y="3" font-family="sans-serif">DESTINATION</text></g></g><g class="layer nodes"><g class="node" transform="translate(740.7014642465366,204.73340343330005)"><circle class="outline" cx="0" cy="0" r="25" fill="#ECB5C9" stroke="#da7298" stroke-width="2px"/><text text-anchor="middle" pointer-events="none" font-family="sans-serif" dy="1.5625" font-size="25" fill="#2A2C34"/><text text-anchor="middle" pointer-events="none" x="0" y="5" font-size="10px" fill="#2A2C34" font-family="sans-serif"> DAY</text></g><g class="node" transform="translate(-250.42982884358042,216.29567474156147)"><circle class="outline" cx="0" cy="0" r="25" fill="#ECB5C9" stroke="#da7298" stroke-width="2px"/><text text-anchor="middle" pointer-events="none" font-family="sans-serif" dy="1.5625" font-size="25" fill="#2A2C34"/><text text-anchor="middle" pointer-events="none" x="0" y="5" font-size="10px" fill="#2A2C34" font-family="sans-serif"> LAX</text></g><g class="node" transform="translate(-301.44600967095914,317.2846743187734)"><circle class="outline" cx="0" cy="0" r="25" fill="#4C8EDA" stroke="#2870c2" stroke-width="2px"/><text text-anchor="middle" pointer-events="none" font-family="sans-serif" dy="1.5625" font-size="25" fill="#FFFFFF"/><text text-anchor="middle" pointer-events="none" x="0" y="5" font-size="10px" fill="#FFFFFF" font-family="sans-serif"> 11/29/20…</text></g><g class="node" transform="translate(-169.1529553821483,210.94243275066498)"><circle class="outline" cx="0" cy="0" r="25" fill="#ECB5C9" stroke="#da7298" stroke-width="2px"/><text text-anchor="middle" pointer-events="none" font-family="sans-serif" dy="1.5625" font-size="25" fill="#2A2C34"/><text text-anchor="middle" pointer-events="none" x="0" y="5" font-size="10px" fill="#2A2C34" font-family="sans-serif"> EWR</text></g><g class="node" transform="translate(-19.568243459960442,-37.46700050812384)"><circle class="outline" cx="0" cy="0" r="25" fill="#4C8EDA" stroke="#2870c2" stroke-width="2px"/><text text-anchor="middle" pointer-events="none" font-family="sans-serif" dy="1.5625" font-size="25" fill="#FFFFFF"/><text text-anchor="middle" pointer-events="none" x="0" y="5" font-size="10px" fill="#FFFFFF" font-family="sans-serif"> 11/30/20…</text></g><g class="node" transform="translate(161.2563181609037,-216.8816036756765)"><circle class="outline" cx="0" cy="0" r="25" fill="#ECB5C9" stroke="#da7298" stroke-width="2px"/><text text-anchor="middle" pointer-events="none" font-family="sans-serif" dy="1.5625" font-size="25" fill="#2A2C34"/><text text-anchor="middle" pointer-events="none" x="0" y="5" font-size="10px" fill="#2A2C34" font-family="sans-serif"> DEN</text></g><g class="node" transform="translate(391.79640458555815,-123.65853037325982)"><circle class="outline" cx="0" cy="0" r="25" fill="#4C8EDA" stroke="#2870c2" stroke-width="2px"/><text text-anchor="middle" pointer-events="none" font-family="sans-serif" dy="1.5625" font-size="25" fill="#FFFFFF"/><text text-anchor="middle" pointer-events="none" x="0" y="5" font-size="10px" fill="#FFFFFF" font-family="sans-serif"> 11/29/20…</text></g><g class="node" transform="translate(545.5551999790499,57.05234621779823)"><circle class="outline" cx="0" cy="0" r="25" fill="#ECB5C9" stroke="#da7298" stroke-width="2px"/><text text-anchor="middle" pointer-events="none" font-family="sans-serif" dy="1.5625" font-size="25" fill="#2A2C34"/><text text-anchor="middle" pointer-events="none" x="0" y="5" font-size="10px" fill="#2A2C34" font-family="sans-serif"> MSP</text></g><g class="node" transform="translate(709.6125377218125,110.7301086711)"><circle class="outline" cx="0" cy="0" r="25" fill="#4C8EDA" stroke="#2870c2" stroke-width="2px"/><text text-anchor="middle" pointer-events="none" font-family="sans-serif" dy="1.5625" font-size="25" fill="#FFFFFF"/><text text-anchor="middle" pointer-events="none" x="0" y="5" font-size="10px" fill="#FFFFFF" font-family="sans-serif"> 11/16/20…</text></g><g class="node" transform="translate(651.0836524742208,98.14427950916998)"><circle class="outline" cx="0" cy="0" r="25" fill="#4C8EDA" stroke="#2870c2" stroke-width="2px"/><text text-anchor="middle" pointer-events="none" font-family="sans-serif" dy="1.5625" font-size="25" fill="#FFFFFF"/><text text-anchor="middle" pointer-events="none" x="0" y="5" font-size="10px" fill="#FFFFFF" font-family="sans-serif"> 11/20/20…</text></g><g class="node" transform="translate(612.571864956485,208.5927592791032)"><circle class="outline" cx="0" cy="0" r="25" fill="#4C8EDA" stroke="#2870c2" stroke-width="2px"/><text text-anchor="middle" pointer-events="none" font-family="sans-serif" dy="1.5625" font-size="25" fill="#FFFFFF"/><text text-anchor="middle" pointer-events="none" x="0" y="5" font-size="10px" fill="#FFFFFF" font-family="sans-serif"> 11/11/20…</text></g><g class="node" transform="translate(692.6098514355491,53.312039169325985)"><circle class="outline" cx="0" cy="0" r="25" fill="#4C8EDA" stroke="#2870c2" stroke-width="2px"/><text text-anchor="middle" pointer-events="none" font-family="sans-serif" dy="1.5625" font-size="25" fill="#FFFFFF"/><text text-anchor="middle" pointer-events="none" x="0" y="5" font-size="10px" fill="#FFFFFF" font-family="sans-serif"> 11/23/20…</text></g><g class="node" transform="translate(644.2596085229912,157.73236563554067)"><circle class="outline" cx="0" cy="0" r="25" fill="#4C8EDA" stroke="#2870c2" stroke-width="2px"/><text text-anchor="middle" pointer-events="none" font-family="sans-serif" dy="1.5625" font-size="25" fill="#FFFFFF"/><text text-anchor="middle" pointer-events="none" x="0" y="5" font-size="10px" fill="#FFFFFF" font-family="sans-serif"> 11/25/20…</text></g><g class="node" transform="translate(-245.27216820283013,338.18749005182485)"><circle class="outline" cx="0" cy="0" r="25" fill="#4C8EDA" stroke="#2870c2" stroke-width="2px"/><text text-anchor="middle" pointer-events="none" font-family="sans-serif" dy="1.5625" font-size="25" fill="#FFFFFF"/><text text-anchor="middle" pointer-events="none" x="0" y="5" font-size="10px" fill="#FFFFFF" font-family="sans-serif"> 11/29/20…</text></g><g class="node" transform="translate(-335.14345122730276,267.6507246907766)"><circle class="outline" cx="0" cy="0" r="25" fill="#4C8EDA" stroke="#2870c2" stroke-width="2px"/><text text-anchor="middle" pointer-events="none" font-family="sans-serif" dy="1.5625" font-size="25" fill="#FFFFFF"/><text text-anchor="middle" pointer-events="none" x="0" y="5" font-size="10px" fill="#FFFFFF" font-family="sans-serif"> 11/30/20…</text></g><g class="node" transform="translate(-150.3911757791755,410.6601838298607)"><circle class="outline" cx="0" cy="0" r="25" fill="#4C8EDA" stroke="#2870c2" stroke-width="2px"/><text text-anchor="middle" pointer-events="none" font-family="sans-serif" dy="1.5625" font-size="25" fill="#FFFFFF"/><text text-anchor="middle" pointer-events="none" x="0" y="5" font-size="10px" fill="#FFFFFF" font-family="sans-serif"> 11/29/20…</text></g><g class="node" transform="translate(45.94233471312259,475.1453257655928)"><circle class="outline" cx="0" cy="0" r="25" fill="#ECB5C9" stroke="#da7298" stroke-width="2px"/><text text-anchor="middle" pointer-events="none" font-family="sans-serif" dy="1.5625" font-size="25" fill="#2A2C34"/><text text-anchor="middle" pointer-events="none" x="0" y="5" font-size="10px" fill="#2A2C34" font-family="sans-serif"> BOS</text></g><g class="node" transform="translate(174.3380035526214,345.8840169829708)"><circle class="outline" cx="0" cy="0" r="25" fill="#4C8EDA" stroke="#2870c2" stroke-width="2px"/><text text-anchor="middle" pointer-events="none" font-family="sans-serif" dy="1.5625" font-size="25" fill="#FFFFFF"/><text text-anchor="middle" pointer-events="none" x="0" y="5" font-size="10px" fill="#FFFFFF" font-family="sans-serif"> 11/29/20…</text></g><g class="node" transform="translate(169.96917040376042,101.71911740837336)"><circle class="outline" cx="0" cy="0" r="25" fill="#ECB5C9" stroke="#da7298" stroke-width="2px"/><text text-anchor="middle" pointer-events="none" font-family="sans-serif" dy="1.5625" font-size="25" fill="#2A2C34"/><text text-anchor="middle" pointer-events="none" x="0" y="5" font-size="10px" fill="#2A2C34" font-family="sans-serif"> ORD</text></g><g class="node" transform="translate(395.03906112521366,143.96018611500605)"><circle class="outline" cx="0" cy="0" r="25" fill="#4C8EDA" stroke="#2870c2" stroke-width="2px"/><text text-anchor="middle" pointer-events="none" font-family="sans-serif" dy="1.5625" font-size="25" fill="#FFFFFF"/><text text-anchor="middle" pointer-events="none" x="0" y="5" font-size="10px" fill="#FFFFFF" font-family="sans-serif"> 11/30/20…</text></g><g class="node" transform="translate(364.2201441848012,92.68568660928541)"><circle class="outline" cx="0" cy="0" r="25" fill="#4C8EDA" stroke="#2870c2" stroke-width="2px"/><text text-anchor="middle" pointer-events="none" font-family="sans-serif" dy="1.5625" font-size="25" fill="#FFFFFF"/><text text-anchor="middle" pointer-events="none" x="0" y="5" font-size="10px" fill="#FFFFFF" font-family="sans-serif"> 11/29/20…</text></g><g class="node" transform="translate(384.91615721036305,36.54864198799547)"><circle class="outline" cx="0" cy="0" r="25" fill="#4C8EDA" stroke="#2870c2" stroke-width="2px"/><text text-anchor="middle" pointer-events="none" font-family="sans-serif" dy="1.5625" font-size="25" fill="#FFFFFF"/><text text-anchor="middle" pointer-events="none" x="0" y="5" font-size="10px" fill="#FFFFFF" font-family="sans-serif"> 11/29/20…</text></g><g class="node" transform="translate(21.024943358365324,207.60847601949396)"><circle class="outline" cx="0" cy="0" r="25" fill="#4C8EDA" stroke="#2870c2" stroke-width="2px"/><text text-anchor="middle" pointer-events="none" font-family="sans-serif" dy="1.5625" font-size="25" fill="#FFFFFF"/><text text-anchor="middle" pointer-events="none" x="0" y="5" font-size="10px" fill="#FFFFFF" font-family="sans-serif"> 11/30/20…</text></g><g class="node" transform="translate(122.4994375885843,315.8251424159053)"><circle class="outline" cx="0" cy="0" r="25" fill="#4C8EDA" stroke="#2870c2" stroke-width="2px"/><text text-anchor="middle" pointer-events="none" font-family="sans-serif" dy="1.5625" font-size="25" fill="#FFFFFF"/><text text-anchor="middle" pointer-events="none" x="0" y="5" font-size="10px" fill="#FFFFFF" font-family="sans-serif"> 11/30/20…</text></g><g class="node" transform="translate(8.169074097646563,149.0592268513994)"><circle class="outline" cx="0" cy="0" r="25" fill="#4C8EDA" stroke="#2870c2" stroke-width="2px"/><text text-anchor="middle" pointer-events="none" font-family="sans-serif" dy="1.5625" font-size="25" fill="#FFFFFF"/><text text-anchor="middle" pointer-events="none" x="0" y="5" font-size="10px" fill="#FFFFFF" font-family="sans-serif"> 11/30/20…</text></g><g class="node" transform="translate(-64.27393160754538,144.3471053167559)"><circle class="outline" cx="0" cy="0" r="25" fill="#4C8EDA" stroke="#2870c2" stroke-width="2px"/><text text-anchor="middle" pointer-events="none" font-family="sans-serif" dy="1.5625" font-size="25" fill="#FFFFFF"/><text text-anchor="middle" pointer-events="none" x="0" y="5" font-size="10px" fill="#FFFFFF" font-family="sans-serif"> 11/29/20…</text></g><g class="node" transform="translate(227.33574132820016,-51.039681447049546)"><circle class="outline" cx="0" cy="0" r="25" fill="#4C8EDA" stroke="#2870c2" stroke-width="2px"/><text text-anchor="middle" pointer-events="none" font-family="sans-serif" dy="1.5625" font-size="25" fill="#FFFFFF"/><text text-anchor="middle" pointer-events="none" x="0" y="5" font-size="10px" fill="#FFFFFF" font-family="sans-serif"> 11/29/20…</text></g><g class="node" transform="translate(243.42971266295237,-108.71618206292699)"><circle class="outline" cx="0" cy="0" r="25" fill="#4C8EDA" stroke="#2870c2" stroke-width="2px"/><text text-anchor="middle" pointer-events="none" font-family="sans-serif" dy="1.5625" font-size="25" fill="#FFFFFF"/><text text-anchor="middle" pointer-events="none" x="0" y="5" font-size="10px" fill="#FFFFFF" font-family="sans-serif"> 11/29/20…</text></g><g class="node" transform="translate(285.1461529907979,-65.94999615397658)"><circle class="outline" cx="0" cy="0" r="25" fill="#4C8EDA" stroke="#2870c2" stroke-width="2px"/><text text-anchor="middle" pointer-events="none" font-family="sans-serif" dy="1.5625" font-size="25" fill="#FFFFFF"/><text text-anchor="middle" pointer-events="none" x="0" y="5" font-size="10px" fill="#FFFFFF" font-family="sans-serif"> 11/30/20…</text></g><g class="node" transform="translate(127.40848903758517,-78.92054902476312)"><circle class="outline" cx="0" cy="0" r="25" fill="#4C8EDA" stroke="#2870c2" stroke-width="2px"/><text text-anchor="middle" pointer-events="none" font-family="sans-serif" dy="1.5625" font-size="25" fill="#FFFFFF"/><text text-anchor="middle" pointer-events="none" x="0" y="5" font-size="10px" fill="#FFFFFF" font-family="sans-serif"> 11/29/20…</text></g><g class="node" transform="translate(169.25045477773313,-36.20060139826571)"><circle class="outline" cx="0" cy="0" r="25" fill="#4C8EDA" stroke="#2870c2" stroke-width="2px"/><text text-anchor="middle" pointer-events="none" font-family="sans-serif" dy="1.5625" font-size="25" fill="#FFFFFF"/><text text-anchor="middle" pointer-events="none" x="0" y="5" font-size="10px" fill="#FFFFFF" font-family="sans-serif"> 11/29/20…</text></g><g class="node" transform="translate(185.38927714992425,-93.74560326505113)"><circle class="outline" cx="0" cy="0" r="25" fill="#4C8EDA" stroke="#2870c2" stroke-width="2px"/><text text-anchor="middle" pointer-events="none" font-family="sans-serif" dy="1.5625" font-size="25" fill="#FFFFFF"/><text text-anchor="middle" pointer-events="none" x="0" y="5" font-size="10px" fill="#FFFFFF" font-family="sans-serif"> 11/29/20…</text></g><g class="node" transform="translate(-46.45692957399752,201.51315565144014)"><circle class="outline" cx="0" cy="0" r="25" fill="#4C8EDA" stroke="#2870c2" stroke-width="2px"/><text text-anchor="middle" pointer-events="none" font-family="sans-serif" dy="1.5625" font-size="25" fill="#FFFFFF"/><text text-anchor="middle" pointer-events="none" x="0" y="5" font-size="10px" fill="#FFFFFF" font-family="sans-serif"> 11/30/20…</text></g><g class="node" transform="translate(-69.19717035416737,292.4354745697384)"><circle class="outline" cx="0" cy="0" r="25" fill="#4C8EDA" stroke="#2870c2" stroke-width="2px"/><text text-anchor="middle" pointer-events="none" font-family="sans-serif" dy="1.5625" font-size="25" fill="#FFFFFF"/><text text-anchor="middle" pointer-events="none" x="0" y="5" font-size="10px" fill="#FFFFFF" font-family="sans-serif"> 11/30/20…</text></g><g class="node" transform="translate(165.51596352782855,239.7118258463455)"><circle class="outline" cx="0" cy="0" r="25" fill="#ECB5C9" stroke="#da7298" stroke-width="2px"/><text text-anchor="middle" pointer-events="none" font-family="sans-serif" dy="1.5625" font-size="25" fill="#2A2C34"/><text text-anchor="middle" pointer-events="none" x="0" y="5" font-size="10px" fill="#2A2C34" font-family="sans-serif"> IAH</text></g><g class="node" transform="translate(263.79364510326457,157.45779861879657)"><circle class="outline" cx="0" cy="0" r="25" fill="#4C8EDA" stroke="#2870c2" stroke-width="2px"/><text text-anchor="middle" pointer-events="none" font-family="sans-serif" dy="1.5625" font-size="25" fill="#FFFFFF"/><text text-anchor="middle" pointer-events="none" x="0" y="5" font-size="10px" fill="#FFFFFF" font-family="sans-serif"> 11/30/20…</text></g><g class="node" transform="translate(-200.48063395567522,-50.16866512545999)"><circle class="outline" cx="0" cy="0" r="25" fill="#4C8EDA" stroke="#2870c2" stroke-width="2px"/><text text-anchor="middle" pointer-events="none" font-family="sans-serif" dy="1.5625" font-size="25" fill="#FFFFFF"/><text text-anchor="middle" pointer-events="none" x="0" y="5" font-size="10px" fill="#FFFFFF" font-family="sans-serif"> 11/29/20…</text></g><g class="node" transform="translate(-71.20052983668539,-272.6851594229313)"><circle class="outline" cx="0" cy="0" r="25" fill="#ECB5C9" stroke="#da7298" stroke-width="2px"/><text text-anchor="middle" pointer-events="none" font-family="sans-serif" dy="1.5625" font-size="25" fill="#2A2C34"/><text text-anchor="middle" pointer-events="none" x="0" y="5" font-size="10px" fill="#2A2C34" font-family="sans-serif"> SFO</text></g><g class="node" transform="translate(20.30172067422429,-84.3440652810686)"><circle class="outline" cx="0" cy="0" r="25" fill="#4C8EDA" stroke="#2870c2" stroke-width="2px"/><text text-anchor="middle" pointer-events="none" font-family="sans-serif" dy="1.5625" font-size="25" fill="#FFFFFF"/><text text-anchor="middle" pointer-events="none" x="0" y="5" font-size="10px" fill="#FFFFFF" font-family="sans-serif"> 11/30/20…</text></g><g class="node" transform="translate(292.5186849742738,209.95009046346522)"><circle class="outline" cx="0" cy="0" r="25" fill="#4C8EDA" stroke="#2870c2" stroke-width="2px"/><text text-anchor="middle" pointer-events="none" font-family="sans-serif" dy="1.5625" font-size="25" fill="#FFFFFF"/><text text-anchor="middle" pointer-events="none" x="0" y="5" font-size="10px" fill="#FFFFFF" font-family="sans-serif"> 11/29/20…</text></g><g class="node" transform="translate(262.06102889619615,261.5118662509649)"><circle class="outline" cx="0" cy="0" r="25" fill="#4C8EDA" stroke="#2870c2" stroke-width="2px"/><text text-anchor="middle" pointer-events="none" font-family="sans-serif" dy="1.5625" font-size="25" fill="#FFFFFF"/><text text-anchor="middle" pointer-events="none" x="0" y="5" font-size="10px" fill="#FFFFFF" font-family="sans-serif"> 11/29/20…</text></g><g class="node" transform="translate(-342.07391854728223,69.84866097467832)"><circle class="outline" cx="0" cy="0" r="25" fill="#4C8EDA" stroke="#2870c2" stroke-width="2px"/><text text-anchor="middle" pointer-events="none" font-family="sans-serif" dy="1.5625" font-size="25" fill="#FFFFFF"/><text text-anchor="middle" pointer-events="none" x="0" y="5" font-size="10px" fill="#FFFFFF" font-family="sans-serif"> 11/4/2015</text></g><g class="node" transform="translate(-261.21867799034925,-14.979796839875045)"><circle class="outline" cx="0" cy="0" r="25" fill="#ECB5C9" stroke="#da7298" stroke-width="2px"/><text text-anchor="middle" pointer-events="none" font-family="sans-serif" dy="1.5625" font-size="25" fill="#2A2C34"/><text text-anchor="middle" pointer-events="none" x="0" y="5" font-size="10px" fill="#2A2C34" font-family="sans-serif"> SMF</text></g><g class="node" transform="translate(-58.268895045567106,69.60608088897057)"><circle class="outline" cx="0" cy="0" r="25" fill="#4C8EDA" stroke="#2870c2" stroke-width="2px"/><text text-anchor="middle" pointer-events="none" font-family="sans-serif" dy="1.5625" font-size="25" fill="#FFFFFF"/><text text-anchor="middle" pointer-events="none" x="0" y="5" font-size="10px" fill="#FFFFFF" font-family="sans-serif"> 11/29/20…</text></g><g class="node" transform="translate(-56.51134065226822,9.88859210413764)"><circle class="outline" cx="0" cy="0" r="25" fill="#4C8EDA" stroke="#2870c2" stroke-width="2px"/><text text-anchor="middle" pointer-events="none" font-family="sans-serif" dy="1.5625" font-size="25" fill="#FFFFFF"/><text text-anchor="middle" pointer-events="none" x="0" y="5" font-size="10px" fill="#FFFFFF" font-family="sans-serif"> 11/30/20…</text></g><g class="node" transform="translate(-389.4804752551333,106.42452923119608)"><circle class="outline" cx="0" cy="0" r="25" fill="#4C8EDA" stroke="#2870c2" stroke-width="2px"/><text text-anchor="middle" pointer-events="none" font-family="sans-serif" dy="1.5625" font-size="25" fill="#FFFFFF"/><text text-anchor="middle" pointer-events="none" x="0" y="5" font-size="10px" fill="#FFFFFF" font-family="sans-serif"> 11/2/2015</text></g><g class="node" transform="translate(7.44069582429106,-299.16206995408146)"><circle class="outline" cx="0" cy="0" r="25" fill="#4C8EDA" stroke="#2870c2" stroke-width="2px"/><text text-anchor="middle" pointer-events="none" font-family="sans-serif" dy="1.5625" font-size="25" fill="#FFFFFF"/><text text-anchor="middle" pointer-events="none" x="0" y="5" font-size="10px" fill="#FFFFFF" font-family="sans-serif"> 11/30/20…</text></g><g class="node" transform="translate(20.17316748210032,-357.6969625093359)"><circle class="outline" cx="0" cy="0" r="25" fill="#4C8EDA" stroke="#2870c2" stroke-width="2px"/><text text-anchor="middle" pointer-events="none" font-family="sans-serif" dy="1.5625" font-size="25" fill="#FFFFFF"/><text text-anchor="middle" pointer-events="none" x="0" y="5" font-size="10px" fill="#FFFFFF" font-family="sans-serif"> 11/29/20…</text></g><g class="node" transform="translate(51.65786218584028,-258.7790693742452)"><circle class="outline" cx="0" cy="0" r="25" fill="#4C8EDA" stroke="#2870c2" stroke-width="2px"/><text text-anchor="middle" pointer-events="none" font-family="sans-serif" dy="1.5625" font-size="25" fill="#FFFFFF"/><text text-anchor="middle" pointer-events="none" x="0" y="5" font-size="10px" fill="#FFFFFF" font-family="sans-serif"> 11/30/20…</text></g><g class="node" transform="translate(69.03830685622871,-118.9860245471531)"><circle class="outline" cx="0" cy="0" r="25" fill="#4C8EDA" stroke="#2870c2" stroke-width="2px"/><text text-anchor="middle" pointer-events="none" font-family="sans-serif" dy="1.5625" font-size="25" fill="#FFFFFF"/><text text-anchor="middle" pointer-events="none" x="0" y="5" font-size="10px" fill="#FFFFFF" font-family="sans-serif"> 11/29/20…</text></g><g class="node" transform="translate(-335.30808220473574,131.75986744786718)"><circle class="outline" cx="0" cy="0" r="25" fill="#4C8EDA" stroke="#2870c2" stroke-width="2px"/><text text-anchor="middle" pointer-events="none" font-family="sans-serif" dy="1.5625" font-size="25" fill="#FFFFFF"/><text text-anchor="middle" pointer-events="none" x="0" y="5" font-size="10px" fill="#FFFFFF" font-family="sans-serif"> 11/1/2015</text></g><g class="node" transform="translate(-287.7420502438718,95.2638728530031)"><circle class="outline" cx="0" cy="0" r="25" fill="#4C8EDA" stroke="#2870c2" stroke-width="2px"/><text text-anchor="middle" pointer-events="none" font-family="sans-serif" dy="1.5625" font-size="25" fill="#FFFFFF"/><text text-anchor="middle" pointer-events="none" x="0" y="5" font-size="10px" fill="#FFFFFF" font-family="sans-serif"> 11/3/2015</text></g><g class="node" transform="translate(77.23981920859744,-375.8489509915683)"><circle class="outline" cx="0" cy="0" r="25" fill="#4C8EDA" stroke="#2870c2" stroke-width="2px"/><text text-anchor="middle" pointer-events="none" font-family="sans-serif" dy="1.5625" font-size="25" fill="#FFFFFF"/><text text-anchor="middle" pointer-events="none" x="0" y="5" font-size="10px" fill="#FFFFFF" font-family="sans-serif"> 11/29/20…</text></g><g class="node" transform="translate(121.49384476725305,-335.4721193520888)"><circle class="outline" cx="0" cy="0" r="25" fill="#4C8EDA" stroke="#2870c2" stroke-width="2px"/><text text-anchor="middle" pointer-events="none" font-family="sans-serif" dy="1.5625" font-size="25" fill="#FFFFFF"/><text text-anchor="middle" pointer-events="none" x="0" y="5" font-size="10px" fill="#FFFFFF" font-family="sans-serif"> 11/29/20…</text></g><g class="node" transform="translate(-78.36623981414274,-159.42037560407044)"><circle class="outline" cx="0" cy="0" r="25" fill="#4C8EDA" stroke="#2870c2" stroke-width="2px"/><text text-anchor="middle" pointer-events="none" font-family="sans-serif" dy="1.5625" font-size="25" fill="#FFFFFF"/><text text-anchor="middle" pointer-events="none" x="0" y="5" font-size="10px" fill="#FFFFFF" font-family="sans-serif"> 11/30/20…</text></g><g class="node" transform="translate(64.45944249187212,-317.3438711286861)"><circle class="outline" cx="0" cy="0" r="25" fill="#4C8EDA" stroke="#2870c2" stroke-width="2px"/><text text-anchor="middle" pointer-events="none" font-family="sans-serif" dy="1.5625" font-size="25" fill="#FFFFFF"/><text text-anchor="middle" pointer-events="none" x="0" y="5" font-size="10px" fill="#FFFFFF" font-family="sans-serif"> 11/30/20…</text></g><g class="node" transform="translate(-141.259364603923,339.93876979054073)"><circle class="outline" cx="0" cy="0" r="25" fill="#4C8EDA" stroke="#2870c2" stroke-width="2px"/><text text-anchor="middle" pointer-events="none" font-family="sans-serif" dy="1.5625" font-size="25" fill="#FFFFFF"/><text text-anchor="middle" pointer-events="none" x="0" y="5" font-size="10px" fill="#FFFFFF" font-family="sans-serif"> 11/29/20…</text></g><g class="node" transform="translate(42.20403249794601,318.2611839668952)"><circle class="outline" cx="0" cy="0" r="25" fill="#ECB5C9" stroke="#da7298" stroke-width="2px"/><text text-anchor="middle" pointer-events="none" font-family="sans-serif" dy="1.5625" font-size="25" fill="#2A2C34"/><text text-anchor="middle" pointer-events="none" x="0" y="5" font-size="10px" fill="#2A2C34" font-family="sans-serif"> LAS</text></g><g class="node" transform="translate(107.47382858898719,224.69461709743877)"><circle class="outline" cx="0" cy="0" r="25" fill="#4C8EDA" stroke="#2870c2" stroke-width="2px"/><text text-anchor="middle" pointer-events="none" font-family="sans-serif" dy="1.5625" font-size="25" fill="#FFFFFF"/><text text-anchor="middle" pointer-events="none" x="0" y="5" font-size="10px" fill="#FFFFFF" font-family="sans-serif"> 11/29/20…</text></g><g class="node" transform="translate(197.21421368643894,290.369871252475)"><circle class="outline" cx="0" cy="0" r="25" fill="#4C8EDA" stroke="#2870c2" stroke-width="2px"/><text text-anchor="middle" pointer-events="none" font-family="sans-serif" dy="1.5625" font-size="25" fill="#FFFFFF"/><text text-anchor="middle" pointer-events="none" x="0" y="5" font-size="10px" fill="#FFFFFF" font-family="sans-serif"> 11/29/20…</text></g><g class="node" transform="translate(107.98307595825614,30.357577959301032)"><circle class="outline" cx="0" cy="0" r="25" fill="#4C8EDA" stroke="#2870c2" stroke-width="2px"/><text text-anchor="middle" pointer-events="none" font-family="sans-serif" dy="1.5625" font-size="25" fill="#FFFFFF"/><text text-anchor="middle" pointer-events="none" x="0" y="5" font-size="10px" fill="#FFFFFF" font-family="sans-serif"> 11/29/20…</text></g></g></svg>