<svg xmlns="http://www.w3.org/2000/svg" width="348.0543518066406" height="341.697998046875" viewBox="-64.00467681884766 -59.04112243652344 348.0543518066406 341.697998046875"><title>Neo4j Graph Visualization</title><desc>Created using Neo4j (http://www.neo4j.com/)</desc><g class="layer relationships"><g class="relationship" transform="translate(229.95240191708348 25.24575764520802) rotate(436.60792817892315)"><path class="outline" fill="#A5ABB6" stroke="none" d="M 25 0.5 L 26.34334535563861 0.5 L 26.34334535563861 -0.5 L 25 -0.5 Z M 75.0152203556386 0.5 L 76.35856571127722 0.5 L 76.35856571127722 3.5 L 83.35856571127722 0 L 76.35856571127722 -3.5 L 76.35856571127722 -0.5 L 75.0152203556386 -0.5 Z"/><text text-anchor="middle" pointer-events="none" font-size="8px" fill="#000000" x="50.67928285563861" y="3" font-family="sans-serif">DESTINA…</text></g><g class="relationship" transform="translate(229.95240191708348 25.24575764520802) rotate(210.63794976864443)"><path class="outline" fill="#A5ABB6" stroke="none" d="M 25 0.5 L 33.52149415407873 0.5 L 33.52149415407873 -0.5 L 25 -0.5 Z M 67.96680665407874 0.5 L 76.48830080815746 0.5 L 76.48830080815746 3.5 L 83.48830080815746 0 L 76.48830080815746 -3.5 L 76.48830080815746 -0.5 L 67.96680665407874 -0.5 Z"/><text text-anchor="middle" pointer-events="none" font-size="8px" fill="#000000" x="50.74415040407873" y="3" transform="rotate(180 50.74415040407873 0)" font-family="sans-serif">ORIGIN</text></g><g class="relationship" transform="translate(28.322227671145217 -14.158097258933235) rotate(351.65557692973084)"><path class="outline" fill="#A5ABB6" stroke="none" d="M 25 0.5 L 26.886544830232744 0.5 L 26.886544830232744 -0.5 L 25 -0.5 Z M 75.55841983023274 0.5 L 77.44496466046549 0.5 L 77.44496466046549 3.5 L 84.44496466046549 0 L 77.44496466046549 -3.5 L 77.44496466046549 -0.5 L 75.55841983023274 -0.5 Z"/><text text-anchor="middle" pointer-events="none" font-size="8px" fill="#000000" x="51.222482330232744" y="3" font-family="sans-serif">DESTINA…</text></g><g class="relationship" transform="translate(28.322227671145217 -14.158097258933235) rotate(485.5102664089949)"><path class="outline" fill="#A5ABB6" stroke="none" d="M 25 0.5 L 33.78972556407903 0.5 L 33.78972556407903 -0.5 L 25 -0.5 Z M 68.23503806407902 0.5 L 77.02476362815806 0.5 L 77.02476362815806 3.5 L 84.02476362815806 0 L 77.02476362815806 -3.5 L 77.02476362815806 -0.5 L 68.23503806407902 -0.5 Z"/><text text-anchor="middle" pointer-events="none" font-size="8px" fill="#000000" x="51.01238181407903" y="3" transform="rotate(180 51.01238181407903 0)" font-family="sans-serif">ORIGIN</text></g><g class="relationship" transform="translate(-21.307391398950532 182.14118674267885) rotate(262.74215776193876)"><path class="outline" fill="#A5ABB6" stroke="none" d="M 25 0.5 L 33.48763348613826 0.5 L 33.48763348613826 -0.5 L 25 -0.5 Z M 67.93294598613826 0.5 L 76.42057947227651 0.5 L 76.42057947227651 3.5 L 83.42057947227651 0 L 76.42057947227651 -3.5 L 76.42057947227651 -0.5 L 67.93294598613826 -0.5 Z"/><text text-anchor="middle" pointer-events="none" font-size="8px" fill="#000000" x="50.71028973613826" y="3" transform="rotate(180 50.71028973613826 0)" font-family="sans-serif">ORIGIN</text></g><g class="relationship" transform="translate(-21.307391398950532 182.14118674267885) rotate(401.60410580006237)"><path class="outline" fill="#A5ABB6" stroke="none" d="M 25 0.5 L 26.017871817317847 0.5 L 26.017871817317847 -0.5 L 25 -0.5 Z M 74.68974681731785 0.5 L 75.7076186346357 0.5 L 75.7076186346357 3.5 L 82.7076186346357 0 L 75.7076186346357 -3.5 L 75.7076186346357 -0.5 L 74.68974681731785 -0.5 Z"/><text text-anchor="middle" pointer-events="none" font-size="8px" fill="#000000" x="50.35380931731785" y="3" font-family="sans-serif">DESTINA…</text></g></g><g class="layer nodes"><g class="node" transform="translate(59.23103556047568,253.65686960207194)"><circle class="outline" cx="0" cy="0" r="25" fill="#ECB5C9" stroke="#da7298" stroke-width="2px"/><text text-anchor="middle" pointer-events="none" font-family="sans-serif" dy="1.5625" font-size="25" fill="#2A2C34"/><text text-anchor="middle" pointer-events="none" x="0" y="5" font-size="10px" fill="#2A2C34" font-family="sans-serif"> DAY</text></g><g class="node" transform="translate(255.04968642023695,130.65783035783878)"><circle class="outline" cx="0" cy="0" r="25" fill="#ECB5C9" stroke="#da7298" stroke-width="2px"/><text text-anchor="middle" pointer-events="none" font-family="sans-serif" dy="1.5625" font-size="25" fill="#2A2C34"/><text text-anchor="middle" pointer-events="none" x="0" y="5" font-size="10px" fill="#2A2C34" font-family="sans-serif"> LAX</text></g><g class="node" transform="translate(229.95240191708348,25.24575764520802)"><circle class="outline" cx="0" cy="0" r="25" fill="#4C8EDA" stroke="#2870c2" stroke-width="2px"/><text text-anchor="middle" pointer-events="none" font-family="sans-serif" dy="1.5625" font-size="25" fill="#FFFFFF"/><text text-anchor="middle" pointer-events="none" x="0" y="5" font-size="10px" fill="#FFFFFF" font-family="sans-serif"> 11/30/20…</text></g><g class="node" transform="translate(136.60856067027896,-30.04111885846703)"><circle class="outline" cx="0" cy="0" r="25" fill="#ECB5C9" stroke="#da7298" stroke-width="2px"/><text text-anchor="middle" pointer-events="none" font-family="sans-serif" dy="1.5625" font-size="25" fill="#2A2C34"/><text text-anchor="middle" pointer-events="none" x="0" y="5" font-size="10px" fill="#2A2C34" font-family="sans-serif"> ORD</text></g><g class="node" transform="translate(28.322227671145217,-14.158097258933235)"><circle class="outline" cx="0" cy="0" r="25" fill="#4C8EDA" stroke="#2870c2" stroke-width="2px"/><text text-anchor="middle" pointer-events="none" font-family="sans-serif" dy="1.5625" font-size="25" fill="#FFFFFF"/><text text-anchor="middle" pointer-events="none" x="0" y="5" font-size="10px" fill="#FFFFFF" font-family="sans-serif"> 11/29/20…</text></g><g class="node" transform="translate(-35.00467782442057,74.58930903855477)"><circle class="outline" cx="0" cy="0" r="25" fill="#ECB5C9" stroke="#da7298" stroke-width="2px"/><text text-anchor="middle" pointer-events="none" font-family="sans-serif" dy="1.5625" font-size="25" fill="#2A2C34"/><text text-anchor="middle" pointer-events="none" x="0" y="5" font-size="10px" fill="#2A2C34" font-family="sans-serif"> MSP</text></g><g class="node" transform="translate(-21.307391398950532,182.14118674267885)"><circle class="outline" cx="0" cy="0" r="25" fill="#4C8EDA" stroke="#2870c2" stroke-width="2px"/><text text-anchor="middle" pointer-events="none" font-family="sans-serif" dy="1.5625" font-size="25" fill="#FFFFFF"/><text text-anchor="middle" pointer-events="none" x="0" y="5" font-size="10px" fill="#FFFFFF" font-family="sans-serif"> 11/25/20…</text></g></g></svg>