<svg xmlns="http://www.w3.org/2000/svg" width="656.0093994140625" height="649.2745361328125" viewBox="-234.72055053710938 -218.41348266601562 656.0093994140625 649.2745361328125"><title>Neo4j Graph Visualization</title><desc>Created using Neo4j (http://www.neo4j.com/)</desc><g class="layer relationships"><g class="relationship" transform="translate(236.19324518405713 131.83292072928265) rotate(181.91630720949217)"><path class="outline" fill="#A5ABB6" stroke="none" d="M 25 0.5 L 62.17882619810001 0.5 L 62.17882619810001 -0.5 L 25 -0.5 Z M 96.62413869810001 0.5 L 133.80296489620002 0.5 L 133.80296489620002 3.5 L 140.80296489620002 0 L 133.80296489620002 -3.5 L 133.80296489620002 -0.5 L 96.62413869810001 -0.5 Z"/><text text-anchor="middle" pointer-events="none" font-size="8px" fill="#000000" x="79.40148244810001" y="3" transform="rotate(180 79.40148244810001 0)" font-family="sans-serif">ORIGIN</text></g><g class="relationship" transform="translate(236.19324518405713 131.83292072928265) rotate(355.14610090267183)"><path class="outline" fill="#A5ABB6" stroke="none" d="M 25 0.5 L 45.23497536530405 0.5 L 45.23497536530405 -0.5 L 25 -0.5 Z M 104.42247536530405 0.5 L 124.6574507306081 0.5 L 124.6574507306081 3.5 L 131.6574507306081 0 L 124.6574507306081 -3.5 L 124.6574507306081 -0.5 L 104.42247536530405 -0.5 Z"/><text text-anchor="middle" pointer-events="none" font-size="8px" fill="#000000" x="74.82872536530405" y="3" font-family="sans-serif">DESTINATION</text></g><g class="relationship" transform="translate(171.88872750951555 296.4361695703051) rotate(239.20562269003358)"><path class="outline" fill="#A5ABB6" stroke="none" d="M 25 0.5 L 78.31438137724444 0.5 L 78.31438137724444 -0.5 L 25 -0.5 Z M 112.75969387724444 0.5 L 166.0740752544889 0.5 L 166.0740752544889 3.5 L 173.0740752544889 0 L 166.0740752544889 -3.5 L 166.0740752544889 -0.5 L 112.75969387724444 -0.5 Z"/><text text-anchor="middle" pointer-events="none" font-size="8px" fill="#000000" x="95.53703762724444" y="3" transform="rotate(180 95.53703762724444 0)" font-family="sans-serif">ORIGIN</text></g><g class="relationship" transform="translate(171.88872750951555 296.4361695703051) rotate(488.3246807923101)"><path class="outline" fill="#A5ABB6" stroke="none" d="M 25 0.5 L 34.09781802401788 0.5 L 34.09781802401788 -0.5 L 25 -0.5 Z M 93.28531802401788 0.5 L 102.38313604803577 0.5 L 102.38313604803577 3.5 L 109.38313604803577 0 L 102.38313604803577 -3.5 L 102.38313604803577 -0.5 L 93.28531802401788 -0.5 Z"/><text text-anchor="middle" pointer-events="none" font-size="8px" fill="#000000" x="63.69156802401788" y="3" transform="rotate(180 63.69156802401788 0)" font-family="sans-serif">DESTINATION</text></g><g class="relationship" transform="translate(78.84731362806673 250.64388830465697) rotate(266.15200583267614)"><path class="outline" fill="#A5ABB6" stroke="none" d="M 25 0.5 L 41.595512719573854 0.5 L 41.595512719573854 -0.5 L 25 -0.5 Z M 76.04082521957386 0.5 L 92.63633793914771 0.5 L 92.63633793914771 3.5 L 99.63633793914771 0 L 92.63633793914771 -3.5 L 92.63633793914771 -0.5 L 76.04082521957386 -0.5 Z"/><text text-anchor="middle" pointer-events="none" font-size="8px" fill="#000000" x="58.818168969573854" y="3" transform="rotate(180 58.818168969573854 0)" font-family="sans-serif">ORIGIN</text></g><g class="relationship" transform="translate(78.84731362806673 250.64388830465697) rotate(446.3266501941481)"><path class="outline" fill="#A5ABB6" stroke="none" d="M 25 0.5 L 42.6704576021949 0.5 L 42.6704576021949 -0.5 L 25 -0.5 Z M 101.8579576021949 0.5 L 119.5284152043898 0.5 L 119.5284152043898 3.5 L 126.5284152043898 0 L 119.5284152043898 -3.5 L 119.5284152043898 -0.5 L 101.8579576021949 -0.5 Z"/><text text-anchor="middle" pointer-events="none" font-size="8px" fill="#000000" x="72.2642076021949" y="3" font-family="sans-serif">DESTINATION</text></g><g class="relationship" transform="translate(223.30786772678354 196.23586227105915) rotate(204.59338182414507)"><path class="outline" fill="#A5ABB6" stroke="none" d="M 25 0.5 L 63.31315041572992 0.5 L 63.31315041572992 -0.5 L 25 -0.5 Z M 97.75846291572992 0.5 L 136.07161333145984 0.5 L 136.07161333145984 3.5 L 143.07161333145984 0 L 136.07161333145984 -3.5 L 136.07161333145984 -0.5 L 97.75846291572992 -0.5 Z"/><text text-anchor="middle" pointer-events="none" font-size="8px" fill="#000000" x="80.53580666572992" y="3" transform="rotate(180 80.53580666572992 0)" font-family="sans-serif">ORIGIN</text></g><g class="relationship" transform="translate(223.30786772678354 196.23586227105915) rotate(387.25892827961366)"><path class="outline" fill="#A5ABB6" stroke="none" d="M 25 0.5 L 44.417696820858126 0.5 L 44.417696820858126 -0.5 L 25 -0.5 Z M 103.60519682085813 0.5 L 123.02289364171625 0.5 L 123.02289364171625 3.5 L 130.02289364171625 0 L 123.02289364171625 -3.5 L 123.02289364171625 -0.5 L 103.60519682085813 -0.5 Z"/><text text-anchor="middle" pointer-events="none" font-size="8px" fill="#000000" x="74.01144682085813" y="3" font-family="sans-serif">DESTINATION</text></g><g class="relationship" transform="translate(112.06148575135448 300.35660742484447) rotate(256.5658627078181)"><path class="outline" fill="#A5ABB6" stroke="none" d="M 25 0.5 L 68.75983562321672 0.5 L 68.75983562321672 -0.5 L 25 -0.5 Z M 103.20514812321672 0.5 L 146.96498374643343 0.5 L 146.96498374643343 3.5 L 153.96498374643343 0 L 146.96498374643343 -3.5 L 146.96498374643343 -0.5 L 103.20514812321672 -0.5 Z"/><text text-anchor="middle" pointer-events="none" font-size="8px" fill="#000000" x="85.98249187321672" y="3" transform="rotate(180 85.98249187321672 0)" font-family="sans-serif">ORIGIN</text></g><g class="relationship" transform="translate(112.06148575135448 300.35660742484447) rotate(463.03852276111667)"><path class="outline" fill="#A5ABB6" stroke="none" d="M 25 0.5 L 26.927313087233543 0.5 L 26.927313087233543 -0.5 L 25 -0.5 Z M 70.26325058723354 0.5 L 72.19056367446709 0.5 L 72.19056367446709 3.5 L 79.19056367446709 0 L 72.19056367446709 -3.5 L 72.19056367446709 -0.5 L 70.26325058723354 -0.5 Z"/><text text-anchor="middle" pointer-events="none" font-size="8px" fill="#000000" x="48.59528183723354" y="3" transform="rotate(180 48.59528183723354 0)" font-family="sans-serif">DESTIN…</text></g><g class="relationship" transform="translate(98.79693076353445 -35.22819935157249) rotate(459.9429366264422)"><path class="outline" fill="#A5ABB6" stroke="none" d="M 25 0.5 L 61.267178706909505 0.5 L 61.267178706909505 -0.5 L 25 -0.5 Z M 95.7124912069095 0.5 L 131.979669913819 0.5 L 131.979669913819 3.5 L 138.979669913819 0 L 131.979669913819 -3.5 L 131.979669913819 -0.5 L 95.7124912069095 -0.5 Z"/><text text-anchor="middle" pointer-events="none" font-size="8px" fill="#000000" x="78.4898349569095" y="3" transform="rotate(180 78.4898349569095 0)" font-family="sans-serif">ORIGIN</text></g><g class="relationship" transform="translate(98.79693076353445 -35.22819935157249) rotate(284.1060143615563)"><path class="outline" fill="#A5ABB6" stroke="none" d="M 25 0.5 L 46.395781942771606 0.5 L 46.395781942771606 -0.5 L 25 -0.5 Z M 105.5832819427716 0.5 L 126.97906388554321 0.5 L 126.97906388554321 3.5 L 133.9790638855432 0 L 126.97906388554321 -3.5 L 126.97906388554321 -0.5 L 105.5832819427716 -0.5 Z"/><text text-anchor="middle" pointer-events="none" font-size="8px" fill="#000000" x="75.9895319427716" y="3" font-family="sans-serif">DESTINATION</text></g><g class="relationship" transform="translate(220.6612084882061 5.471885412952467) rotate(501.18372039063365)"><path class="outline" fill="#A5ABB6" stroke="none" d="M 25 0.5 L 75.64921945578928 0.5 L 75.64921945578928 -0.5 L 25 -0.5 Z M 110.09453195578928 0.5 L 160.74375141157856 0.5 L 160.74375141157856 3.5 L 167.74375141157856 0 L 160.74375141157856 -3.5 L 160.74375141157856 -0.5 L 110.09453195578928 -0.5 Z"/><text text-anchor="middle" pointer-events="none" font-size="8px" fill="#000000" x="92.87187570578928" y="3" transform="rotate(180 92.87187570578928 0)" font-family="sans-serif">ORIGIN</text></g><g class="relationship" transform="translate(220.6612084882061 5.471885412952467) rotate(322.65613057556743)"><path class="outline" fill="#A5ABB6" stroke="none" d="M 25 0.5 L 26.30407910627835 0.5 L 26.30407910627835 -0.5 L 25 -0.5 Z M 69.64001660627835 0.5 L 70.9440957125567 0.5 L 70.9440957125567 3.5 L 77.9440957125567 0 L 70.9440957125567 -3.5 L 70.9440957125567 -0.5 L 69.64001660627835 -0.5 Z"/><text text-anchor="middle" pointer-events="none" font-size="8px" fill="#000000" x="47.97204785627835" y="3" font-family="sans-serif">DESTIN…</text></g><g class="relationship" transform="translate(-36.07489778049894 52.367493639766565) rotate(394.7497049928802)"><path class="outline" fill="#A5ABB6" stroke="none" d="M 25 0.5 L 44.12120774281783 0.5 L 44.12120774281783 -0.5 L 25 -0.5 Z M 78.56652024281783 0.5 L 97.68772798563566 0.5 L 97.68772798563566 3.5 L 104.68772798563566 0 L 97.68772798563566 -3.5 L 97.68772798563566 -0.5 L 78.56652024281783 -0.5 Z"/><text text-anchor="middle" pointer-events="none" font-size="8px" fill="#000000" x="61.34386399281783" y="3" font-family="sans-serif">ORIGIN</text></g><g class="relationship" transform="translate(-36.07489778049894 52.367493639766565) rotate(215.04047720191323)"><path class="outline" fill="#A5ABB6" stroke="none" d="M 25 0.5 L 47.18008299853028 0.5 L 47.18008299853028 -0.5 L 25 -0.5 Z M 106.36758299853028 0.5 L 128.54766599706056 0.5 L 128.54766599706056 3.5 L 135.54766599706056 0 L 128.54766599706056 -3.5 L 128.54766599706056 -0.5 L 106.36758299853028 -0.5 Z"/><text text-anchor="middle" pointer-events="none" font-size="8px" fill="#000000" x="76.77383299853028" y="3" transform="rotate(180 76.77383299853028 0)" font-family="sans-serif">DESTINATION</text></g><g class="relationship" transform="translate(38.50875623996594 -33.30624142229039) rotate(438.6709803241859)"><path class="outline" fill="#A5ABB6" stroke="none" d="M 25 0.5 L 60.660455991817386 0.5 L 60.660455991817386 -0.5 L 25 -0.5 Z M 95.10576849181739 0.5 L 130.76622448363477 0.5 L 130.76622448363477 3.5 L 137.76622448363477 0 L 130.76622448363477 -3.5 L 130.76622448363477 -0.5 L 95.10576849181739 -0.5 Z"/><text text-anchor="middle" pointer-events="none" font-size="8px" fill="#000000" x="77.88311224181739" y="3" font-family="sans-serif">ORIGIN</text></g><g class="relationship" transform="translate(38.50875623996594 -33.30624142229039) rotate(253.42945504153704)"><path class="outline" fill="#A5ABB6" stroke="none" d="M 25 0.5 L 45.201118797604366 0.5 L 45.201118797604366 -0.5 L 25 -0.5 Z M 104.38861879760437 0.5 L 124.58973759520873 0.5 L 124.58973759520873 3.5 L 131.58973759520873 0 L 124.58973759520873 -3.5 L 124.58973759520873 -0.5 L 104.38861879760437 -0.5 Z"/><text text-anchor="middle" pointer-events="none" font-size="8px" fill="#000000" x="74.79486879760437" y="3" transform="rotate(180 74.79486879760437 0)" font-family="sans-serif">DESTINATION</text></g><g class="relationship" transform="translate(138.67602477382155 246.80875172332682) rotate(240.4978548611101)"><path class="outline" fill="#A5ABB6" stroke="none" d="M 25 0.5 L 48.51499867594178 0.5 L 48.51499867594178 -0.5 L 25 -0.5 Z M 82.96031117594178 0.5 L 106.47530985188357 0.5 L 106.47530985188357 3.5 L 113.47530985188357 0 L 106.47530985188357 -3.5 L 106.47530985188357 -0.5 L 82.96031117594178 -0.5 Z"/><text text-anchor="middle" pointer-events="none" font-size="8px" fill="#000000" x="65.73765492594178" y="3" transform="rotate(180 65.73765492594178 0)" font-family="sans-serif">ORIGIN</text></g><g class="relationship" transform="translate(138.67602477382155 246.80875172332682) rotate(467.91340331311267)"><path class="outline" fill="#A5ABB6" stroke="none" d="M 25 0.5 L 48.38211860250753 0.5 L 48.38211860250753 -0.5 L 25 -0.5 Z M 107.56961860250753 0.5 L 130.95173720501506 0.5 L 130.95173720501506 3.5 L 137.95173720501506 0 L 130.95173720501506 -3.5 L 130.95173720501506 -0.5 L 107.56961860250753 -0.5 Z"/><text text-anchor="middle" pointer-events="none" font-size="8px" fill="#000000" x="77.97586860250753" y="3" transform="rotate(180 77.97586860250753 0)" font-family="sans-serif">DESTINATION</text></g><g class="relationship" transform="translate(166.76111735398575 -20.520839854485263) rotate(483.25700580237384)"><path class="outline" fill="#A5ABB6" stroke="none" d="M 25 0.5 L 67.0589841379276 0.5 L 67.0589841379276 -0.5 L 25 -0.5 Z M 101.5042966379276 0.5 L 143.5632807758552 0.5 L 143.5632807758552 3.5 L 150.5632807758552 0 L 143.5632807758552 -3.5 L 143.5632807758552 -0.5 L 101.5042966379276 -0.5 Z"/><text text-anchor="middle" pointer-events="none" font-size="8px" fill="#000000" x="84.2816403879276" y="3" transform="rotate(180 84.2816403879276 0)" font-family="sans-serif">ORIGIN</text></g><g class="relationship" transform="translate(166.76111735398575 -20.520839854485263) rotate(344.96809284350206)"><path class="outline" fill="#A5ABB6" stroke="none" d="M 25 0.5 L 37.18177019145959 0.5 L 37.18177019145959 -0.5 L 25 -0.5 Z M 96.36927019145959 0.5 L 108.55104038291918 0.5 L 108.55104038291918 3.5 L 115.55104038291918 0 L 108.55104038291918 -3.5 L 108.55104038291918 -0.5 L 96.36927019145959 -0.5 Z"/><text text-anchor="middle" pointer-events="none" font-size="8px" fill="#000000" x="66.77552019145959" y="3" font-family="sans-serif">DESTINATION</text></g><g class="relationship" transform="translate(-32.024802237967336 -9.755554145583647) rotate(413.0023534664764)"><path class="outline" fill="#A5ABB6" stroke="none" d="M 25 0.5 L 64.44753204376477 0.5 L 64.44753204376477 -0.5 L 25 -0.5 Z M 98.89284454376477 0.5 L 138.34037658752953 0.5 L 138.34037658752953 3.5 L 145.34037658752953 0 L 138.34037658752953 -3.5 L 138.34037658752953 -0.5 L 98.89284454376477 -0.5 Z"/><text text-anchor="middle" pointer-events="none" font-size="8px" fill="#000000" x="81.67018829376477" y="3" font-family="sans-serif">ORIGIN</text></g><g class="relationship" transform="translate(-32.024802237967336 -9.755554145583647) rotate(192.50686058890352)"><path class="outline" fill="#A5ABB6" stroke="none" d="M 25 0.5 L 36.30198302196767 0.5 L 36.30198302196767 -0.5 L 25 -0.5 Z M 95.48948302196767 0.5 L 106.79146604393534 0.5 L 106.79146604393534 3.5 L 113.79146604393534 0 L 106.79146604393534 -3.5 L 106.79146604393534 -0.5 L 95.48948302196767 -0.5 Z"/><text text-anchor="middle" pointer-events="none" font-size="8px" fill="#000000" x="65.89573302196767" y="3" transform="rotate(180 65.89573302196767 0)" font-family="sans-serif">DESTINATION</text></g><g class="relationship" transform="translate(52.311793735494504 304.23618055060945) rotate(275.83057708246446)"><path class="outline" fill="#A5ABB6" stroke="none" d="M 25 0.5 L 68.71385658286599 0.5 L 68.71385658286599 -0.5 L 25 -0.5 Z M 103.15916908286599 0.5 L 146.87302566573197 0.5 L 146.87302566573197 3.5 L 153.87302566573197 0 L 146.87302566573197 -3.5 L 146.87302566573197 -0.5 L 103.15916908286599 -0.5 Z"/><text text-anchor="middle" pointer-events="none" font-size="8px" fill="#000000" x="85.93651283286599" y="3" font-family="sans-serif">ORIGIN</text></g><g class="relationship" transform="translate(52.311793735494504 304.23618055060945) rotate(429.63232327423924)"><path class="outline" fill="#A5ABB6" stroke="none" d="M 25 0.5 L 26.899792407384126 0.5 L 26.899792407384126 -0.5 L 25 -0.5 Z M 70.23572990738413 0.5 L 72.13552231476825 0.5 L 72.13552231476825 3.5 L 79.13552231476825 0 L 72.13552231476825 -3.5 L 72.13552231476825 -0.5 L 70.23572990738413 -0.5 Z"/><text text-anchor="middle" pointer-events="none" font-size="8px" fill="#000000" x="48.567761157384126" y="3" font-family="sans-serif">DESTIN…</text></g><g class="relationship" transform="translate(-70.93135613852768 213.60892674053) rotate(328.30554184213906)"><path class="outline" fill="#A5ABB6" stroke="none" d="M 25 0.5 L 62.377996411203526 0.5 L 62.377996411203526 -0.5 L 25 -0.5 Z M 96.82330891120353 0.5 L 134.20130532240705 0.5 L 134.20130532240705 3.5 L 141.20130532240705 0 L 134.20130532240705 -3.5 L 134.20130532240705 -0.5 L 96.82330891120353 -0.5 Z"/><text text-anchor="middle" pointer-events="none" font-size="8px" fill="#000000" x="79.60065266120353" y="3" font-family="sans-serif">ORIGIN</text></g><g class="relationship" transform="translate(-70.93135613852768 213.60892674053) rotate(531.2034113883109)"><path class="outline" fill="#A5ABB6" stroke="none" d="M 25 0.5 L 35.10301554805967 0.5 L 35.10301554805967 -0.5 L 25 -0.5 Z M 94.29051554805967 0.5 L 104.39353109611935 0.5 L 104.39353109611935 3.5 L 111.39353109611935 0 L 104.39353109611935 -3.5 L 104.39353109611935 -0.5 L 94.29051554805967 -0.5 Z"/><text text-anchor="middle" pointer-events="none" font-size="8px" fill="#000000" x="64.69676554805967" y="3" transform="rotate(180 64.69676554805967 0)" font-family="sans-serif">DESTINATION</text></g><g class="relationship" transform="translate(-91.96013785739797 157.54093055771855) rotate(349.10993764583054)"><path class="outline" fill="#A5ABB6" stroke="none" d="M 25 0.5 L 61.98841915949053 0.5 L 61.98841915949053 -0.5 L 25 -0.5 Z M 96.43373165949053 0.5 L 133.42215081898107 0.5 L 133.42215081898107 3.5 L 140.42215081898107 0 L 133.42215081898107 -3.5 L 133.42215081898107 -0.5 L 96.43373165949053 -0.5 Z"/><text text-anchor="middle" pointer-events="none" font-size="8px" fill="#000000" x="79.21107540949053" y="3" font-family="sans-serif">ORIGIN</text></g><g class="relationship" transform="translate(-91.96013785739797 157.54093055771855) rotate(505.93293978718907)"><path class="outline" fill="#A5ABB6" stroke="none" d="M 25 0.5 L 35.570434145783565 0.5 L 35.570434145783565 -0.5 L 25 -0.5 Z M 94.75793414578357 0.5 L 105.32836829156713 0.5 L 105.32836829156713 3.5 L 112.32836829156713 0 L 105.32836829156713 -3.5 L 105.32836829156713 -0.5 L 94.75793414578357 -0.5 Z"/><text text-anchor="middle" pointer-events="none" font-size="8px" fill="#000000" x="65.16418414578357" y="3" transform="rotate(180 65.16418414578357 0)" font-family="sans-serif">DESTINATION</text></g><g class="relationship" transform="translate(19.056594656567846 254.63358160889774) rotate(291.83541865772105)"><path class="outline" fill="#A5ABB6" stroke="none" d="M 25 0.5 L 48.409695399896876 0.5 L 48.409695399896876 -0.5 L 25 -0.5 Z M 82.85500789989688 0.5 L 106.26470329979375 0.5 L 106.26470329979375 3.5 L 113.26470329979375 0 L 106.26470329979375 -3.5 L 106.26470329979375 -0.5 L 82.85500789989688 -0.5 Z"/><text text-anchor="middle" pointer-events="none" font-size="8px" fill="#000000" x="65.63235164989688" y="3" font-family="sans-serif">ORIGIN</text></g><g class="relationship" transform="translate(19.056594656567846 254.63358160889774) rotate(424.7302948280778)"><path class="outline" fill="#A5ABB6" stroke="none" d="M 25 0.5 L 48.309570480910835 0.5 L 48.309570480910835 -0.5 L 25 -0.5 Z M 107.49707048091084 0.5 L 130.80664096182167 0.5 L 130.80664096182167 3.5 L 137.80664096182167 0 L 130.80664096182167 -3.5 L 130.80664096182167 -0.5 L 107.49707048091084 -0.5 Z"/><text text-anchor="middle" pointer-events="none" font-size="8px" fill="#000000" x="77.90332048091084" y="3" font-family="sans-serif">DESTINATION</text></g><g class="relationship" transform="translate(-84.95725556883328 18.250849182808796) rotate(394.80096528521784)"><path class="outline" fill="#A5ABB6" stroke="none" d="M 25 0.5 L 73.92645343028823 0.5 L 73.92645343028823 -0.5 L 25 -0.5 Z M 108.37176593028823 0.5 L 157.29821936057647 0.5 L 157.29821936057647 3.5 L 164.29821936057647 0 L 157.29821936057647 -3.5 L 157.29821936057647 -0.5 L 108.37176593028823 -0.5 Z"/><text text-anchor="middle" pointer-events="none" font-size="8px" fill="#000000" x="91.14910968028823" y="3" font-family="sans-serif">ORIGIN</text></g><g class="relationship" transform="translate(-84.95725556883328 18.250849182808796) rotate(215.11606500029876)"><path class="outline" fill="#A5ABB6" stroke="none" d="M 25 0.5 L 25.30065443645678 0.5 L 25.30065443645678 -0.5 L 25 -0.5 Z M 68.63659193645678 0.5 L 68.93724637291356 0.5 L 68.93724637291356 3.5 L 75.93724637291356 0 L 68.93724637291356 -3.5 L 68.93724637291356 -0.5 L 68.63659193645678 -0.5 Z"/><text text-anchor="middle" pointer-events="none" font-size="8px" fill="#000000" x="46.96862318645678" y="3" transform="rotate(180 46.96862318645678 0)" font-family="sans-serif">DESTIN…</text></g><g class="relationship" transform="translate(-93.8144542051782 77.47074096608456) rotate(376.5482909883794)"><path class="outline" fill="#A5ABB6" stroke="none" d="M 25 0.5 L 64.97569908794578 0.5 L 64.97569908794578 -0.5 L 25 -0.5 Z M 99.42101158794578 0.5 L 139.39671067589157 0.5 L 139.39671067589157 3.5 L 146.39671067589157 0 L 139.39671067589157 -3.5 L 139.39671067589157 -0.5 L 99.42101158794578 -0.5 Z"/><text text-anchor="middle" pointer-events="none" font-size="8px" fill="#000000" x="82.19835533794578" y="3" font-family="sans-serif">ORIGIN</text></g><g class="relationship" transform="translate(-93.8144542051782 77.47074096608456) rotate(237.85194874649562)"><path class="outline" fill="#A5ABB6" stroke="none" d="M 25 0.5 L 36.16680306120287 0.5 L 36.16680306120287 -0.5 L 25 -0.5 Z M 95.35430306120287 0.5 L 106.52110612240574 0.5 L 106.52110612240574 3.5 L 113.52110612240574 0 L 106.52110612240574 -3.5 L 106.52110612240574 -0.5 L 95.35430306120287 -0.5 Z"/><text text-anchor="middle" pointer-events="none" font-size="8px" fill="#000000" x="65.76055306120287" y="3" transform="rotate(180 65.76055306120287 0)" font-family="sans-serif">DESTINATION</text></g><g class="relationship" transform="translate(-7.521865947303481 308.13354839694495) rotate(293.2175654873083)"><path class="outline" fill="#A5ABB6" stroke="none" d="M 25 0.5 L 78.212134080967 0.5 L 78.212134080967 -0.5 L 25 -0.5 Z M 112.657446580967 0.5 L 165.869580661934 0.5 L 165.869580661934 3.5 L 172.869580661934 0 L 165.869580661934 -3.5 L 165.869580661934 -0.5 L 112.657446580967 -0.5 Z"/><text text-anchor="middle" pointer-events="none" font-size="8px" fill="#000000" x="95.434790330967" y="3" font-family="sans-serif">ORIGIN</text></g><g class="relationship" transform="translate(-7.521865947303481 308.13354839694495) rotate(404.2906855521851)"><path class="outline" fill="#A5ABB6" stroke="none" d="M 25 0.5 L 34.01751158610321 0.5 L 34.01751158610321 -0.5 L 25 -0.5 Z M 93.20501158610321 0.5 L 102.22252317220642 0.5 L 102.22252317220642 3.5 L 109.22252317220642 0 L 102.22252317220642 -3.5 L 102.22252317220642 -0.5 L 93.20501158610321 -0.5 Z"/><text text-anchor="middle" pointer-events="none" font-size="8px" fill="#000000" x="63.61126158610321" y="3" font-family="sans-serif">DESTINATION</text></g><g class="relationship" transform="translate(230.14330252247973 64.5579921784344) rotate(518.8616662645146)"><path class="outline" fill="#A5ABB6" stroke="none" d="M 25 0.5 L 64.86657955703193 0.5 L 64.86657955703193 -0.5 L 25 -0.5 Z M 99.31189205703193 0.5 L 139.17847161406385 0.5 L 139.17847161406385 3.5 L 146.17847161406385 0 L 139.17847161406385 -3.5 L 139.17847161406385 -0.5 L 99.31189205703193 -0.5 Z"/><text text-anchor="middle" pointer-events="none" font-size="8px" fill="#000000" x="82.08923580703193" y="3" transform="rotate(180 82.08923580703193 0)" font-family="sans-serif">ORIGIN</text></g><g class="relationship" transform="translate(230.14330252247973 64.5579921784344) rotate(300.7693708756615)"><path class="outline" fill="#A5ABB6" stroke="none" d="M 25 0.5 L 37.62725655448949 0.5 L 37.62725655448949 -0.5 L 25 -0.5 Z M 96.81475655448949 0.5 L 109.44201310897898 0.5 L 109.44201310897898 3.5 L 116.44201310897898 0 L 109.44201310897898 -3.5 L 109.44201310897898 -0.5 L 96.81475655448949 -0.5 Z"/><text text-anchor="middle" pointer-events="none" font-size="8px" fill="#000000" x="67.22100655448949" y="3" font-family="sans-serif">DESTINATION</text></g><g class="relationship" transform="translate(171.39075161548564 39.19201158844501) rotate(499.2015324846997)"><path class="outline" fill="#A5ABB6" stroke="none" d="M 25 0.5 L 45.926005354090364 0.5 L 45.926005354090364 -0.5 L 25 -0.5 Z M 80.37131785409036 0.5 L 101.29732320818073 0.5 L 101.29732320818073 3.5 L 108.29732320818073 0 L 101.29732320818073 -3.5 L 101.29732320818073 -0.5 L 80.37131785409036 -0.5 Z"/><text text-anchor="middle" pointer-events="none" font-size="8px" fill="#000000" x="63.148661604090364" y="3" transform="rotate(180 63.148661604090364 0)" font-family="sans-serif">ORIGIN</text></g><g class="relationship" transform="translate(171.39075161548564 39.19201158844501) rotate(323.7413429028895)"><path class="outline" fill="#A5ABB6" stroke="none" d="M 25 0.5 L 48.20538356724468 0.5 L 48.20538356724468 -0.5 L 25 -0.5 Z M 107.39288356724468 0.5 L 130.59826713448936 0.5 L 130.59826713448936 3.5 L 137.59826713448936 0 L 130.59826713448936 -3.5 L 130.59826713448936 -0.5 L 107.39288356724468 -0.5 Z"/><text text-anchor="middle" pointer-events="none" font-size="8px" fill="#000000" x="77.79913356724468" y="3" font-family="sans-serif">DESTINATION</text></g></g><g class="layer nodes"><g class="node" transform="translate(70.48300741698738,126.28853009083198)"><circle class="outline" cx="0" cy="0" r="25" fill="#ECB5C9" stroke="#da7298" stroke-width="2px"/><text text-anchor="middle" pointer-events="none" font-family="sans-serif" dy="1.5625" font-size="25" fill="#2A2C34"/><text text-anchor="middle" pointer-events="none" x="0" y="5" font-size="10px" fill="#2A2C34" font-family="sans-serif"> LAX</text></g><g class="node" transform="translate(392.28887548605456,118.5773154984739)"><circle class="outline" cx="0" cy="0" r="25" fill="#ECB5C9" stroke="#da7298" stroke-width="2px"/><text text-anchor="middle" pointer-events="none" font-family="sans-serif" dy="1.5625" font-size="25" fill="#2A2C34"/><text text-anchor="middle" pointer-events="none" x="0" y="5" font-size="10px" fill="#2A2C34" font-family="sans-serif"> LAS</text></g><g class="node" transform="translate(88.55545691865603,401.86099239081295)"><circle class="outline" cx="0" cy="0" r="25" fill="#ECB5C9" stroke="#da7298" stroke-width="2px"/><text text-anchor="middle" pointer-events="none" font-family="sans-serif" dy="1.5625" font-size="25" fill="#2A2C34"/><text text-anchor="middle" pointer-events="none" x="0" y="5" font-size="10px" fill="#2A2C34" font-family="sans-serif"> ABQ</text></g><g class="node" transform="translate(361.11481501477874,267.2382765413823)"><circle class="outline" cx="0" cy="0" r="25" fill="#ECB5C9" stroke="#da7298" stroke-width="2px"/><text text-anchor="middle" pointer-events="none" font-family="sans-serif" dy="1.5625" font-size="25" fill="#2A2C34"/><text text-anchor="middle" pointer-events="none" x="0" y="5" font-size="10px" fill="#2A2C34" font-family="sans-serif"> IAH</text></g><g class="node" transform="translate(137.5428023913466,-189.41347810971052)"><circle class="outline" cx="0" cy="0" r="25" fill="#ECB5C9" stroke="#da7298" stroke-width="2px"/><text text-anchor="middle" pointer-events="none" font-family="sans-serif" dy="1.5625" font-size="25" fill="#2A2C34"/><text text-anchor="middle" pointer-events="none" x="0" y="5" font-size="10px" fill="#2A2C34" font-family="sans-serif"> EWR</text></g><g class="node" transform="translate(302.5027181587857,-56.973724015705244)"><circle class="outline" cx="0" cy="0" r="25" fill="#ECB5C9" stroke="#da7298" stroke-width="2px"/><text text-anchor="middle" pointer-events="none" font-family="sans-serif" dy="1.5625" font-size="25" fill="#2A2C34"/><text text-anchor="middle" pointer-events="none" x="0" y="5" font-size="10px" fill="#2A2C34" font-family="sans-serif"> FAT</text></g><g class="node" transform="translate(-167.52275840549467,-39.81175019644318)"><circle class="outline" cx="0" cy="0" r="25" fill="#ECB5C9" stroke="#da7298" stroke-width="2px"/><text text-anchor="middle" pointer-events="none" font-family="sans-serif" dy="1.5625" font-size="25" fill="#2A2C34"/><text text-anchor="middle" pointer-events="none" x="0" y="5" font-size="10px" fill="#2A2C34" font-family="sans-serif"> SMF</text></g><g class="node" transform="translate(-6.1499585849192355,-183.39270020630565)"><circle class="outline" cx="0" cy="0" r="25" fill="#ECB5C9" stroke="#da7298" stroke-width="2px"/><text text-anchor="middle" pointer-events="none" font-family="sans-serif" dy="1.5625" font-size="25" fill="#2A2C34"/><text text-anchor="middle" pointer-events="none" x="0" y="5" font-size="10px" fill="#2A2C34" font-family="sans-serif"> BOS</text></g><g class="node" transform="translate(-205.72055675185544,234.4671798526235)"><circle class="outline" cx="0" cy="0" r="25" fill="#ECB5C9" stroke="#da7298" stroke-width="2px"/><text text-anchor="middle" pointer-events="none" font-family="sans-serif" dy="1.5625" font-size="25" fill="#2A2C34"/><text text-anchor="middle" pointer-events="none" x="0" y="5" font-size="10px" fill="#2A2C34" font-family="sans-serif"> TUS</text></g><g class="node" transform="translate(236.19324518405713,131.83292072928265)"><circle class="outline" cx="0" cy="0" r="25" fill="#4C8EDA" stroke="#2870c2" stroke-width="2px"/><text text-anchor="middle" pointer-events="none" font-family="sans-serif" dy="1.5625" font-size="25" fill="#FFFFFF"/><text text-anchor="middle" pointer-events="none" x="0" y="5" font-size="10px" fill="#FFFFFF" font-family="sans-serif"> 11/29/20…</text></g><g class="node" transform="translate(171.88872750951555,296.4361695703051)"><circle class="outline" cx="0" cy="0" r="25" fill="#4C8EDA" stroke="#2870c2" stroke-width="2px"/><text text-anchor="middle" pointer-events="none" font-family="sans-serif" dy="1.5625" font-size="25" fill="#FFFFFF"/><text text-anchor="middle" pointer-events="none" x="0" y="5" font-size="10px" fill="#FFFFFF" font-family="sans-serif"> 11/3/2015</text></g><g class="node" transform="translate(78.84731362806673,250.64388830465697)"><circle class="outline" cx="0" cy="0" r="25" fill="#4C8EDA" stroke="#2870c2" stroke-width="2px"/><text text-anchor="middle" pointer-events="none" font-family="sans-serif" dy="1.5625" font-size="25" fill="#FFFFFF"/><text text-anchor="middle" pointer-events="none" x="0" y="5" font-size="10px" fill="#FFFFFF" font-family="sans-serif"> 11/1/2015</text></g><g class="node" transform="translate(223.30786772678354,196.23586227105915)"><circle class="outline" cx="0" cy="0" r="25" fill="#4C8EDA" stroke="#2870c2" stroke-width="2px"/><text text-anchor="middle" pointer-events="none" font-family="sans-serif" dy="1.5625" font-size="25" fill="#FFFFFF"/><text text-anchor="middle" pointer-events="none" x="0" y="5" font-size="10px" fill="#FFFFFF" font-family="sans-serif"> 11/30/20…</text></g><g class="node" transform="translate(112.06148575135448,300.35660742484447)"><circle class="outline" cx="0" cy="0" r="25" fill="#4C8EDA" stroke="#2870c2" stroke-width="2px"/><text text-anchor="middle" pointer-events="none" font-family="sans-serif" dy="1.5625" font-size="25" fill="#FFFFFF"/><text text-anchor="middle" pointer-events="none" x="0" y="5" font-size="10px" fill="#FFFFFF" font-family="sans-serif"> 11/4/2015</text></g><g class="node" transform="translate(98.79693076353445,-35.22819935157249)"><circle class="outline" cx="0" cy="0" r="25" fill="#4C8EDA" stroke="#2870c2" stroke-width="2px"/><text text-anchor="middle" pointer-events="none" font-family="sans-serif" dy="1.5625" font-size="25" fill="#FFFFFF"/><text text-anchor="middle" pointer-events="none" x="0" y="5" font-size="10px" fill="#FFFFFF" font-family="sans-serif"> 11/29/20…</text></g><g class="node" transform="translate(220.6612084882061,5.471885412952467)"><circle class="outline" cx="0" cy="0" r="25" fill="#4C8EDA" stroke="#2870c2" stroke-width="2px"/><text text-anchor="middle" pointer-events="none" font-family="sans-serif" dy="1.5625" font-size="25" fill="#FFFFFF"/><text text-anchor="middle" pointer-events="none" x="0" y="5" font-size="10px" fill="#FFFFFF" font-family="sans-serif"> 11/2/2015</text></g><g class="node" transform="translate(-36.07489778049894,52.367493639766565)"><circle class="outline" cx="0" cy="0" r="25" fill="#4C8EDA" stroke="#2870c2" stroke-width="2px"/><text text-anchor="middle" pointer-events="none" font-family="sans-serif" dy="1.5625" font-size="25" fill="#FFFFFF"/><text text-anchor="middle" pointer-events="none" x="0" y="5" font-size="10px" fill="#FFFFFF" font-family="sans-serif"> 11/3/2015</text></g><g class="node" transform="translate(38.50875623996594,-33.30624142229039)"><circle class="outline" cx="0" cy="0" r="25" fill="#4C8EDA" stroke="#2870c2" stroke-width="2px"/><text text-anchor="middle" pointer-events="none" font-family="sans-serif" dy="1.5625" font-size="25" fill="#FFFFFF"/><text text-anchor="middle" pointer-events="none" x="0" y="5" font-size="10px" fill="#FFFFFF" font-family="sans-serif"> 11/29/20…</text></g><g class="node" transform="translate(138.67602477382155,246.80875172332682)"><circle class="outline" cx="0" cy="0" r="25" fill="#4C8EDA" stroke="#2870c2" stroke-width="2px"/><text text-anchor="middle" pointer-events="none" font-family="sans-serif" dy="1.5625" font-size="25" fill="#FFFFFF"/><text text-anchor="middle" pointer-events="none" x="0" y="5" font-size="10px" fill="#FFFFFF" font-family="sans-serif"> 11/2/2015</text></g><g class="node" transform="translate(166.76111735398575,-20.520839854485263)"><circle class="outline" cx="0" cy="0" r="25" fill="#4C8EDA" stroke="#2870c2" stroke-width="2px"/><text text-anchor="middle" pointer-events="none" font-family="sans-serif" dy="1.5625" font-size="25" fill="#FFFFFF"/><text text-anchor="middle" pointer-events="none" x="0" y="5" font-size="10px" fill="#FFFFFF" font-family="sans-serif"> 11/3/2015</text></g><g class="node" transform="translate(-32.024802237967336,-9.755554145583647)"><circle class="outline" cx="0" cy="0" r="25" fill="#4C8EDA" stroke="#2870c2" stroke-width="2px"/><text text-anchor="middle" pointer-events="none" font-family="sans-serif" dy="1.5625" font-size="25" fill="#FFFFFF"/><text text-anchor="middle" pointer-events="none" x="0" y="5" font-size="10px" fill="#FFFFFF" font-family="sans-serif"> 11/1/2015</text></g><g class="node" transform="translate(52.311793735494504,304.23618055060945)"><circle class="outline" cx="0" cy="0" r="25" fill="#4C8EDA" stroke="#2870c2" stroke-width="2px"/><text text-anchor="middle" pointer-events="none" font-family="sans-serif" dy="1.5625" font-size="25" fill="#FFFFFF"/><text text-anchor="middle" pointer-events="none" x="0" y="5" font-size="10px" fill="#FFFFFF" font-family="sans-serif"> 11/2/2015</text></g><g class="node" transform="translate(-70.93135613852768,213.60892674053)"><circle class="outline" cx="0" cy="0" r="25" fill="#4C8EDA" stroke="#2870c2" stroke-width="2px"/><text text-anchor="middle" pointer-events="none" font-family="sans-serif" dy="1.5625" font-size="25" fill="#FFFFFF"/><text text-anchor="middle" pointer-events="none" x="0" y="5" font-size="10px" fill="#FFFFFF" font-family="sans-serif"> 11/2/2015</text></g><g class="node" transform="translate(-91.96013785739797,157.54093055771855)"><circle class="outline" cx="0" cy="0" r="25" fill="#4C8EDA" stroke="#2870c2" stroke-width="2px"/><text text-anchor="middle" pointer-events="none" font-family="sans-serif" dy="1.5625" font-size="25" fill="#FFFFFF"/><text text-anchor="middle" pointer-events="none" x="0" y="5" font-size="10px" fill="#FFFFFF" font-family="sans-serif"> 11/1/2015</text></g><g class="node" transform="translate(19.056594656567846,254.63358160889774)"><circle class="outline" cx="0" cy="0" r="25" fill="#4C8EDA" stroke="#2870c2" stroke-width="2px"/><text text-anchor="middle" pointer-events="none" font-family="sans-serif" dy="1.5625" font-size="25" fill="#FFFFFF"/><text text-anchor="middle" pointer-events="none" x="0" y="5" font-size="10px" fill="#FFFFFF" font-family="sans-serif"> 11/3/2015</text></g><g class="node" transform="translate(-84.95725556883328,18.250849182808796)"><circle class="outline" cx="0" cy="0" r="25" fill="#4C8EDA" stroke="#2870c2" stroke-width="2px"/><text text-anchor="middle" pointer-events="none" font-family="sans-serif" dy="1.5625" font-size="25" fill="#FFFFFF"/><text text-anchor="middle" pointer-events="none" x="0" y="5" font-size="10px" fill="#FFFFFF" font-family="sans-serif"> 11/4/2015</text></g><g class="node" transform="translate(-93.8144542051782,77.47074096608456)"><circle class="outline" cx="0" cy="0" r="25" fill="#4C8EDA" stroke="#2870c2" stroke-width="2px"/><text text-anchor="middle" pointer-events="none" font-family="sans-serif" dy="1.5625" font-size="25" fill="#FFFFFF"/><text text-anchor="middle" pointer-events="none" x="0" y="5" font-size="10px" fill="#FFFFFF" font-family="sans-serif"> 11/2/2015</text></g><g class="node" transform="translate(-7.521865947303481,308.13354839694495)"><circle class="outline" cx="0" cy="0" r="25" fill="#4C8EDA" stroke="#2870c2" stroke-width="2px"/><text text-anchor="middle" pointer-events="none" font-family="sans-serif" dy="1.5625" font-size="25" fill="#FFFFFF"/><text text-anchor="middle" pointer-events="none" x="0" y="5" font-size="10px" fill="#FFFFFF" font-family="sans-serif"> 11/1/2015</text></g><g class="node" transform="translate(230.14330252247973,64.5579921784344)"><circle class="outline" cx="0" cy="0" r="25" fill="#4C8EDA" stroke="#2870c2" stroke-width="2px"/><text text-anchor="middle" pointer-events="none" font-family="sans-serif" dy="1.5625" font-size="25" fill="#FFFFFF"/><text text-anchor="middle" pointer-events="none" x="0" y="5" font-size="10px" fill="#FFFFFF" font-family="sans-serif"> 11/1/2015</text></g><g class="node" transform="translate(171.39075161548564,39.19201158844501)"><circle class="outline" cx="0" cy="0" r="25" fill="#4C8EDA" stroke="#2870c2" stroke-width="2px"/><text text-anchor="middle" pointer-events="none" font-family="sans-serif" dy="1.5625" font-size="25" fill="#FFFFFF"/><text text-anchor="middle" pointer-events="none" x="0" y="5" font-size="10px" fill="#FFFFFF" font-family="sans-serif"> 11/4/2015</text></g></g></svg>