<svg xmlns="http://www.w3.org/2000/svg" width="268.2069091796875" height="289.3191223144531" viewBox="-30.689815521240234 -40.39383316040039 268.2069091796875 289.3191223144531"><title>Neo4j Graph Visualization</title><desc>Created using Neo4j (http://www.neo4j.com/)</desc><g class="layer relationships"><g class="relationship" transform="translate(115.90021039523057 -11.393833863548767) rotate(391.3053981869797)"><path class="outline" fill="#A5ABB6" stroke="none" d="M 25 0.5 L 33.47666916041499 0.5 L 33.47666916041499 -0.5 L 25 -0.5 Z M 67.92198166041499 0.5 L 76.39865082082999 0.5 L 76.39865082082999 3.5 L 83.39865082082999 0 L 76.39865082082999 -3.5 L 76.39865082082999 -0.5 L 67.92198166041499 -0.5 Z"/><text text-anchor="middle" pointer-events="none" font-size="8px" fill="#000000" x="50.69932541041499" y="3" font-family="sans-serif">ORIGIN</text></g><g class="relationship" transform="translate(115.90021039523057 -11.393833863548767) rotate(509.5078598348989)"><path class="outline" fill="#A5ABB6" stroke="none" d="M 25 0.5 L 26.039818136042392 0.5 L 26.039818136042392 -0.5 L 25 -0.5 Z M 74.71169313604238 0.5 L 75.75151127208478 0.5 L 75.75151127208478 3.5 L 82.75151127208478 0 L 75.75151127208478 -3.5 L 75.75151127208478 -0.5 L 74.71169313604238 -0.5 Z"/><text text-anchor="middle" pointer-events="none" font-size="8px" fill="#000000" x="50.37575563604239" y="3" transform="rotate(180 50.37575563604239 0)" font-family="sans-serif">DESTINA…</text></g><g class="relationship" transform="translate(-1.689815870570987 148.1427149392907) rotate(283.27543248343954)"><path class="outline" fill="#A5ABB6" stroke="none" d="M 25 0.5 L 33.14752353298394 0.5 L 33.14752353298394 -0.5 L 25 -0.5 Z M 67.59283603298394 0.5 L 75.74035956596788 0.5 L 75.74035956596788 3.5 L 82.74035956596788 0 L 75.74035956596788 -3.5 L 75.74035956596788 -0.5 L 67.59283603298394 -0.5 Z"/><text text-anchor="middle" pointer-events="none" font-size="8px" fill="#000000" x="50.37017978298394" y="3" font-family="sans-serif">ORIGIN</text></g><g class="relationship" transform="translate(-1.689815870570987 148.1427149392907) rotate(401.47593780292624)"><path class="outline" fill="#A5ABB6" stroke="none" d="M 25 0.5 L 26.355492219749777 0.5 L 26.355492219749777 -0.5 L 25 -0.5 Z M 75.02736721974978 0.5 L 76.38285943949955 0.5 L 76.38285943949955 3.5 L 83.38285943949955 0 L 76.38285943949955 -3.5 L 76.38285943949955 -0.5 L 75.02736721974978 -0.5 Z"/><text text-anchor="middle" pointer-events="none" font-size="8px" fill="#000000" x="50.69142971974978" y="3" font-family="sans-serif">DESTINA…</text></g></g><g class="layer nodes"><g class="node" transform="translate(208.517088554675,44.93006319422636)"><circle class="outline" cx="0" cy="0" r="25" fill="#ECB5C9" stroke="#da7298" stroke-width="2px"/><text text-anchor="middle" pointer-events="none" font-family="sans-serif" dy="1.5625" font-size="25" fill="#2A2C34"/><text text-anchor="middle" pointer-events="none" x="0" y="5" font-size="10px" fill="#2A2C34" font-family="sans-serif"> MSN</text></g><g class="node" transform="translate(79.51430003334004,219.92527396686023)"><circle class="outline" cx="0" cy="0" r="25" fill="#ECB5C9" stroke="#da7298" stroke-width="2px"/><text text-anchor="middle" pointer-events="none" font-family="sans-serif" dy="1.5625" font-size="25" fill="#2A2C34"/><text text-anchor="middle" pointer-events="none" x="0" y="5" font-size="10px" fill="#2A2C34" font-family="sans-serif"> GRR</text></g><g class="node" transform="translate(115.90021039523057,-11.393833863548767)"><circle class="outline" cx="0" cy="0" r="25" fill="#4C8EDA" stroke="#2870c2" stroke-width="2px"/><text text-anchor="middle" pointer-events="none" font-family="sans-serif" dy="1.5625" font-size="25" fill="#FFFFFF"/><text text-anchor="middle" pointer-events="none" x="0" y="5" font-size="10px" fill="#FFFFFF" font-family="sans-serif"> 11/30/20…</text></g><g class="node" transform="translate(23.05086497191895,43.28145521552952)"><circle class="outline" cx="0" cy="0" r="25" fill="#ECB5C9" stroke="#da7298" stroke-width="2px"/><text text-anchor="middle" pointer-events="none" font-family="sans-serif" dy="1.5625" font-size="25" fill="#2A2C34"/><text text-anchor="middle" pointer-events="none" x="0" y="5" font-size="10px" fill="#2A2C34" font-family="sans-serif"> ORD</text></g><g class="node" transform="translate(-1.689815870570987,148.1427149392907)"><circle class="outline" cx="0" cy="0" r="25" fill="#4C8EDA" stroke="#2870c2" stroke-width="2px"/><text text-anchor="middle" pointer-events="none" font-family="sans-serif" dy="1.5625" font-size="25" fill="#FFFFFF"/><text text-anchor="middle" pointer-events="none" x="0" y="5" font-size="10px" fill="#FFFFFF" font-family="sans-serif"> 11/17/20…</text></g></g></svg>